<?xml version="1.0" encoding="UTF-8" standalone="no"?>
<!-- Created with Inkscape (http://www.inkscape.org/) -->

<svg
   xmlns:dc="http://purl.org/dc/elements/1.1/"
   xmlns:cc="http://creativecommons.org/ns#"
   xmlns:rdf="http://www.w3.org/1999/02/22-rdf-syntax-ns#"
   xmlns:svg="http://www.w3.org/2000/svg"
   xmlns="http://www.w3.org/2000/svg"
   xmlns:sodipodi="http://sodipodi.sourceforge.net/DTD/sodipodi-0.dtd"
   xmlns:inkscape="http://www.inkscape.org/namespaces/inkscape"
   width="247.10283mm"
   height="61.034546mm"
   viewBox="0 0 247.10283 61.034546"
   version="1.1"
   id="SVGRoot"
   inkscape:version="0.92.4 (unknown)"
   sodipodi:docname="dibujo.svg">
  <defs
     id="defs704">
    <clipPath
       id="clipPath47"
       clipPathUnits="userSpaceOnUse">
      <path
         inkscape:connector-curvature="0"
         id="path45"
         d="m 3443.7,2160.41 c 31.7,0 60.26,5.56 85.68,16.68 25.42,11.13 48,25.29 67.74,42.48 19.74,17.18 36.34,36.23 49.8,57.13 13.46,20.89 23.78,40.78 30.95,59.66 -19.14,13.48 -40.67,25.62 -64.6,36.41 -20.34,9.43 -44.11,17.86 -71.32,25.27 -27.22,7.42 -56.38,11.13 -87.49,11.13 -51.44,0 -92.26,-6.07 -122.46,-18.21 -30.21,-12.13 -51.29,-27.46 -63.26,-46 -11.96,-18.54 -16,-38.6 -12.11,-60.17 3.89,-21.58 14.06,-41.63 30.51,-60.17 16.45,-18.54 38.13,-33.87 65.04,-46.01 26.92,-12.13 57.43,-18.2 91.52,-18.2 z m 770.71,1062.78 c -3.59,0 -9.87,-7.08 -18.85,-21.24 -8.97,-14.15 -19.74,-32.69 -32.3,-55.61 -12.56,-22.92 -26.16,-49.21 -40.82,-78.88 -14.65,-29.66 -29.46,-59.66 -44.41,-89.99 -35.29,-71.46 -73.87,-153.03 -115.74,-244.72 17.34,0 37.08,12.14 59.21,36.41 22.14,24.27 44.27,54.6 66.4,91.01 22.13,36.4 42.92,75.67 62.35,117.8 19.45,42.14 35.59,81.41 48.45,117.81 12.87,36.4 21.09,66.74 24.68,91.01 3.58,24.27 0.6,36.4 -8.97,36.4 z m 417.2,-1133.56 c 5.98,-3.38 11.07,-11.47 15.25,-24.27 4.19,-12.81 6.73,-27.81 7.63,-45 0.9,-17.19 -0.15,-35.73 -3.14,-55.62 -2.99,-19.89 -8.97,-38.6 -17.95,-56.12 -11.96,-23.6 -29.9,-44.49 -53.83,-62.7 -23.93,-18.2 -53.53,-30.33 -88.82,-36.4 -35.29,-6.07 -75.82,-4.55 -121.57,4.55 -45.76,9.1 -96.16,28.82 -151.18,59.16 -43.07,23.59 -83.89,51.4 -122.48,83.42 -38.57,32.02 -76.11,65.73 -112.59,101.12 -36.49,35.39 -72.83,71.12 -109.02,107.19 -36.18,36.07 -73.12,69.94 -110.8,101.63 0,0 -2.25,-5.23 -6.73,-15.68 -4.49,-10.45 -11.67,-23.25 -21.53,-38.42 -9.87,-15.17 -23.03,-31.52 -39.48,-49.05 -16.45,-17.53 -36.64,-33.87 -60.57,-49.04 -23.92,-15.17 -52.18,-27.81 -84.78,-37.92 -32.6,-10.11 -69.83,-15.17 -111.7,-15.17 -47.86,0 -87.93,10.28 -120.23,30.84 -32.3,20.56 -56.52,46.35 -72.68,77.36 -16.14,31.01 -23.77,64.55 -22.87,100.62 0.89,36.06 10.17,69.6 27.81,100.61 17.64,31.01 43.96,56.8 78.95,77.36 35,20.56 79.11,30.84 132.34,30.84 23.33,0 47.11,-2.87 71.33,-8.6 24.23,-5.73 46.96,-12.46 68.19,-20.22 21.23,-7.75 40.22,-15.67 56.97,-23.76 16.75,-8.09 29.31,-14.16 37.69,-18.2 0.59,-0.68 1.79,-1.35 3.58,-2.03 1.2,-0.67 2.4,-1.18 3.59,-1.51 1.2,-0.34 2.4,-0.85 3.6,-1.52 1.19,2.7 4.33,10.45 9.41,23.26 5.09,12.8 11.67,29.32 19.74,49.55 8.08,20.22 17.8,43.82 29.16,70.78 11.37,26.97 23.93,56.29 37.69,87.98 -19.15,0.67 -37.99,2.69 -56.53,6.06 -41.27,6.75 -75.36,20.23 -102.28,40.45 -26.92,20.23 -47.85,44.66 -62.81,73.32 -14.95,28.65 -24.07,60.16 -27.36,94.54 -3.29,34.39 -1.65,69.61 4.93,105.67 6.58,36.07 17.65,71.46 33.2,106.18 15.55,34.72 34.69,66.57 57.42,95.56 20.94,26.96 46.06,48.03 75.37,63.2 29.31,15.17 58.17,26.29 86.58,33.37 28.41,7.08 54.13,11.12 77.16,12.14 23.03,1.01 39.03,0.84 48,-0.51 32.9,-6.06 44.26,-15.17 34.09,-27.3 -4.18,-5.4 -8.37,-8.09 -12.56,-8.09 -4.18,0 -8.37,0.67 -12.56,2.02 -4.78,2.02 -9.27,5.06 -13.46,9.1 -19.73,-2.02 -40.67,-7.75 -62.8,-17.19 -19.14,-8.09 -40.37,-20.73 -63.7,-37.92 -23.33,-17.19 -47.26,-41.63 -71.78,-73.31 -38.28,-49.21 -63.7,-96.91 -76.27,-143.09 -12.55,-46.17 -15.69,-87.81 -9.42,-124.88 6.28,-37.08 20.34,-67.92 42.17,-92.53 21.84,-24.6 48.6,-39.6 80.31,-45 4.78,-0.67 10.46,-1.35 17.04,-2.02 11.37,-1.35 26.62,-1.35 45.76,0 19.74,43.82 40.97,89.16 63.7,136.01 22.73,46.85 46.06,92.69 69.98,137.52 23.93,44.83 48.3,87.14 73.13,126.91 24.82,39.78 49.19,74.83 73.12,105.16 23.93,30.34 47.11,54.27 69.53,71.8 22.43,17.53 43.52,26.29 63.26,26.29 8.37,0 14.5,-4.55 18.39,-13.65 3.89,-9.1 6.58,-20.05 8.07,-32.86 1.5,-12.81 1.95,-26.29 1.35,-40.45 -0.6,-14.16 -1.19,-25.96 -1.79,-35.39 -4.79,-51.91 -13.16,-99.44 -25.12,-142.58 -11.97,-43.15 -26.32,-82.42 -43.07,-117.81 -16.75,-35.39 -34.99,-66.91 -54.73,-94.55 -19.74,-27.64 -39.78,-51.91 -60.12,-72.8 -47.25,-49.22 -99.29,-87.98 -156.11,-116.29 l -130.09,-299.32 c 37.68,-26.29 75.81,-54.27 114.39,-83.93 38.58,-29.66 76.86,-58.99 114.84,-87.98 37.98,-28.98 75.52,-56.63 112.6,-82.92 37.09,-26.29 72.67,-48.87 106.77,-67.75 43.07,-23.6 83.14,-41.46 120.23,-53.6 37.08,-12.13 70.43,-18.7 100.04,-19.71 29.61,-1.01 54.88,3.2 75.81,12.64 20.94,9.43 36.49,23.93 46.66,43.48 5.38,10.79 9.27,21.91 11.66,33.37 2.39,11.46 4.64,21.74 6.73,30.84 2.09,9.1 4.48,15.84 7.18,20.23 2.69,4.38 6.73,5.22 12.11,2.53 z" />
    </clipPath>
    <linearGradient
       id="linearGradient59"
       spreadMethod="pad"
       gradientTransform="matrix(10,0,0,10,-430,-3840)"
       gradientUnits="userSpaceOnUse"
       y2="714.81299"
       x2="436.86301"
       y1="564.58801"
       x1="436.86301">
      <stop
         id="stop49"
         offset="0"
         style="stop-opacity:1;stop-color:#3d3904" />
      <stop
         id="stop51"
         offset="0.15748"
         style="stop-opacity:1;stop-color:#625d07" />
      <stop
         id="stop53"
         offset="0.488189"
         style="stop-opacity:1;stop-color:#fff200" />
      <stop
         id="stop55"
         offset="0.811024"
         style="stop-opacity:1;stop-color:#8d7707" />
      <stop
         id="stop57"
         offset="1"
         style="stop-opacity:1;stop-color:#433703" />
    </linearGradient>
    <clipPath
       id="clipPath69"
       clipPathUnits="userSpaceOnUse">
      <path
         inkscape:connector-curvature="0"
         id="path67"
         d="m 4792.02,3228.25 c -19.73,0 -43.81,-5.06 -72.22,-15.17 -28.41,-10.12 -58.17,-24.1 -89.28,-41.97 -31.1,-17.86 -61.9,-39.1 -92.41,-63.7 -30.5,-24.61 -57.87,-51.41 -82.09,-80.39 -24.23,-28.99 -43.97,-60 -59.22,-93.04 -15.25,-33.03 -22.88,-66.4 -22.88,-100.1 0,-28.32 9.12,-49.89 27.37,-64.72 18.24,-14.83 41.71,-22.25 70.43,-22.25 16.74,0 31.7,2.87 44.86,8.6 13.16,5.72 22.73,16.01 28.71,30.84 4.78,11.46 5.98,22.58 3.59,33.37 -2.4,10.78 -5.99,20.39 -10.77,28.82 -4.79,8.42 -9.57,15.34 -14.35,20.73 -4.79,5.39 -6.88,8.76 -6.28,10.11 1.79,6.07 5.38,9.78 10.76,11.12 5.39,1.35 10.47,0.51 15.25,-2.52 4.79,-3.04 7.48,-4.89 8.08,-5.57 1.2,-2.02 2.99,-4.38 5.38,-7.07 2.99,-3.38 6.58,-9.78 10.77,-19.22 2.99,-7.41 4.78,-17.36 5.38,-29.83 0.6,-12.47 -2.39,-26.79 -8.97,-42.97 -10.17,-24.27 -26.62,-42.98 -49.34,-56.13 -22.74,-13.14 -48.16,-19.72 -76.27,-19.72 -25.72,0 -48.75,4.05 -69.09,12.14 -20.33,8.09 -37.68,18.87 -52.03,32.35 -14.36,13.49 -25.27,29.5 -32.75,48.04 -7.48,18.54 -11.22,38.26 -11.22,59.16 0,30.33 7.18,61.34 21.53,93.03 14.36,31.68 33.95,62.52 58.77,92.52 24.83,30 53.99,58.31 87.48,84.94 33.5,26.63 69.84,49.89 109.01,69.78 39.18,19.88 80.01,35.56 122.48,47.02 42.46,11.46 84.93,17.19 127.4,17.19 33.49,0 60.26,-7.25 80.3,-21.74 20.03,-14.5 35.29,-31.86 45.76,-52.08 10.46,-20.22 17.34,-41.29 20.63,-63.2 3.29,-21.91 4.94,-39.94 4.94,-54.1 0,-25.62 -7.18,-55.79 -21.54,-90.5 -14.35,-34.72 -32.15,-70.96 -53.38,-108.71 -21.24,-37.75 -44.41,-75.33 -69.54,-112.75 -25.12,-37.41 -48.29,-71.96 -69.53,-103.65 -21.23,-31.68 -39.03,-58.65 -53.38,-80.89 -14.36,-22.25 -21.54,-37.08 -21.54,-44.5 64,75.51 122.32,142.92 174.96,202.25 22.13,24.94 44.41,49.71 66.84,74.32 22.43,24.61 43.07,46.35 61.91,65.22 18.84,18.88 35.14,34.22 48.9,46.01 13.75,11.8 23.33,17.7 28.71,17.7 10.77,0 20.93,-3.2 30.5,-9.61 9.57,-6.4 18.1,-14.16 25.57,-23.25 7.48,-9.11 13.47,-18.88 17.95,-29.33 4.48,-10.45 6.73,-19.38 6.73,-26.8 0,-6.07 -1.94,-13.82 -5.83,-23.26 -3.89,-9.43 -9.12,-20.22 -15.7,-32.35 -6.58,-12.14 -14.06,-24.78 -22.43,-37.92 -8.38,-13.15 -16.75,-26.12 -25.13,-38.94 -19.73,-30.33 -42.46,-63.03 -68.19,-98.08 -34.09,-48.54 -66.39,-96.57 -96.9,-144.1 -30.5,-47.53 -54.72,-90.84 -72.67,-129.94 6.58,7.41 16.3,18.7 29.16,33.87 12.86,15.17 27.82,32.53 44.86,52.08 17.05,19.55 35.44,40.62 55.18,63.2 19.74,22.59 40.08,45.68 61.01,69.27 50.84,57.3 91.07,101.62 120.68,132.97 29.61,31.35 52.03,54.27 67.28,68.77 15.26,14.49 25.28,22.92 30.06,25.28 4.79,2.36 8.08,3.54 9.87,3.54 9.57,0 18.7,-2.87 27.37,-8.6 8.67,-5.73 16.15,-12.64 22.43,-20.73 6.28,-8.09 11.36,-16.69 15.25,-25.79 3.89,-9.1 5.83,-17.02 5.83,-23.76 0,-10.79 -5.98,-25.95 -17.94,-45.5 -11.96,-19.55 -27.22,-43.15 -45.76,-70.79 -13.76,-20.89 -28.86,-43.31 -45.31,-67.24 -16.45,-23.94 -31.7,-49.21 -45.76,-75.84 -14.05,-26.63 -25.86,-54.78 -35.43,-84.44 -9.58,-29.66 -14.36,-60.67 -14.36,-93.03 0,-39.77 5.53,-76.35 16.6,-109.72 11.07,-33.37 25.57,-62.19 43.51,-86.46 17.95,-24.27 38.29,-43.31 61.01,-57.13 22.73,-13.82 45.76,-20.73 69.09,-20.73 27.51,0 49.64,6.41 66.39,19.21 16.75,12.81 30.06,27.14 39.93,42.98 9.87,15.84 16.89,30.17 21.08,42.98 4.19,12.8 7.18,19.21 8.97,19.21 11.37,0 20.04,-4.38 26.02,-13.15 2.4,-4.72 3.89,-9.77 4.49,-15.16 0.6,-5.4 0.75,-10.62 0.45,-15.68 -0.3,-5.05 -0.9,-9.27 -1.8,-12.64 -0.89,-3.37 -1.34,-5.05 -1.34,-5.05 0,-0.68 -2.54,-6.07 -7.63,-16.18 -5.09,-10.12 -13.6,-21.58 -25.57,-34.39 -10.77,-11.46 -26.17,-22.58 -46.2,-33.36 -20.04,-10.79 -45.91,-16.18 -77.62,-16.18 -32.3,0 -65.19,7.41 -98.69,22.24 -33.49,14.83 -64,36.57 -91.52,65.22 -27.51,28.65 -50.09,63.71 -67.74,105.17 -17.64,41.46 -26.46,88.82 -26.46,142.08 0,30.33 3.29,59.49 9.87,87.47 6.58,27.97 14.95,54.09 25.12,78.36 10.17,24.27 21.23,46.69 33.2,67.25 11.96,20.56 23.33,38.93 34.09,55.11 13.76,21.57 27.37,40.79 40.83,57.64 13.45,16.85 24.67,30.67 33.64,41.46 -12.56,-10.11 -28.86,-25.11 -48.9,-45 -20.03,-19.89 -42.17,-42.81 -66.39,-68.76 -24.23,-25.95 -49.65,-54.1 -76.26,-84.44 -26.62,-30.34 -52.64,-60.67 -78.06,-91.01 -25.42,-30.33 -49.35,-59.83 -71.78,-88.48 -22.43,-28.65 -41.72,-54.43 -57.87,-77.35 -13.16,-1.35 -25.12,0.33 -35.89,5.05 -8.97,4.04 -17.19,11.8 -24.67,23.26 -7.48,11.46 -11.22,28.99 -11.22,52.58 0,16.18 4.19,36.24 12.56,60.17 8.38,23.93 19.59,49.71 33.65,77.36 14.06,27.64 29.91,56.46 47.55,86.46 17.65,30 35.74,59.15 54.28,87.46 43.07,66.74 92.42,137.19 148.04,211.35 -8.97,0 -22.58,-6.91 -40.82,-20.73 -18.24,-13.82 -39.03,-32.53 -62.36,-56.12 -23.33,-23.6 -48.45,-50.73 -75.36,-81.41 -26.92,-30.67 -53.68,-62.86 -80.3,-96.57 -26.62,-33.7 -52.19,-67.58 -76.72,-101.62 -24.52,-34.05 -46.2,-66.24 -65.04,-96.57 -18.84,-30.34 -33.94,-57.81 -45.31,-82.42 -11.37,-24.6 -17.05,-43.65 -17.05,-57.13 0,-7.42 -4.19,-11.8 -12.56,-13.15 -8.38,-1.34 -17.79,0.85 -28.26,6.57 -10.47,5.74 -19.89,15.68 -28.26,29.84 -8.38,14.15 -12.56,33.37 -12.56,57.64 0,45.16 10.17,94.04 30.5,146.62 20.34,52.58 45.61,106.01 75.81,160.28 30.21,54.27 63.11,108.03 98.7,161.29 35.59,53.25 68.48,102.97 98.69,149.15 30.21,46.18 55.48,87.47 75.82,123.88 20.33,36.4 30.5,65.05 30.5,85.94 0,20.23 -7.93,38.09 -23.78,53.6 -15.85,15.51 -38.43,23.26 -67.73,23.26 z" />
    </clipPath>
    <linearGradient
       id="linearGradient81"
       spreadMethod="pad"
       gradientTransform="matrix(10,0,0,10,-430,-3840)"
       gradientUnits="userSpaceOnUse"
       y2="710.36401"
       x2="529.67902"
       y1="580.52502"
       x1="529.67902">
      <stop
         id="stop71"
         offset="0"
         style="stop-opacity:1;stop-color:#3d3904" />
      <stop
         id="stop73"
         offset="0.15748"
         style="stop-opacity:1;stop-color:#625d07" />
      <stop
         id="stop75"
         offset="0.488189"
         style="stop-opacity:1;stop-color:#f2e915" />
      <stop
         id="stop77"
         offset="0.811024"
         style="stop-opacity:1;stop-color:#8d7707" />
      <stop
         id="stop79"
         offset="1"
         style="stop-opacity:1;stop-color:#433703" />
    </linearGradient>
    <clipPath
       id="clipPath91"
       clipPathUnits="userSpaceOnUse">
      <path
         inkscape:connector-curvature="0"
         id="path89"
         d="m 3714.53,1151.45 c 14.76,28.48 24.55,53.8 29.35,75.96 2.21,9.49 3.32,18.81 3.32,27.95 0,9.14 -1.75,17.23 -5.26,24.26 -3.51,7.04 -9.05,12.75 -16.61,17.15 -7.57,4.39 -18,6.59 -31.29,6.59 -11.08,0 -23.9,-2.81 -38.49,-8.44 -14.58,-5.63 -28.33,-11.96 -41.25,-18.99 -15.14,-8.09 -30.64,-17.23 -46.52,-27.43 -5.53,6.33 -9.6,12.66 -12.18,18.99 -2.21,5.63 -3.41,11.52 -3.6,17.67 -0.18,6.16 2.86,12.22 9.14,18.2 4.06,3.87 12.46,10.28 25.2,19.25 12.73,8.97 27.59,19.6 44.57,31.91 16.98,12.31 34.89,25.85 53.72,40.61 18.82,14.78 36.36,29.63 52.6,44.58 16.25,14.94 29.9,29.53 40.98,43.77 11.07,14.25 17.35,27.34 18.83,39.3 2.58,19.69 -3.24,33.49 -17.45,41.4 -14.21,7.91 -34.98,11.87 -62.29,11.87 -18.46,0 -37.84,-3.43 -58.15,-10.28 -20.3,-6.86 -40.97,-16.18 -62.02,-27.96 -21.04,-11.78 -41.99,-25.23 -62.84,-40.35 -20.86,-15.12 -40.8,-30.85 -59.81,-47.21 -19.02,-16.35 -36.73,-32.87 -53.16,-49.58 -16.43,-16.7 -30.74,-32.35 -42.92,-46.94 -12.18,-14.59 -21.96,-27.52 -29.35,-38.77 -7.38,-11.25 -11.44,-19.86 -12.18,-25.84 -1.1,-7.03 0.56,-10.82 4.99,-11.34 4.43,-0.53 10.52,1.23 18.27,5.27 7.75,4.04 16.7,10.11 26.86,18.2 10.15,8.09 20.85,17.05 32.11,26.9 11.26,9.85 22.43,20.22 33.51,31.12 11.07,10.9 21.41,21.45 31,31.65 4.07,4.92 7.02,9.67 8.87,14.24 1.84,4.57 3.13,8.7 3.87,12.39 0.74,3.7 1.48,6.68 2.22,8.97 0.73,2.28 2.03,3.43 3.87,3.43 7.76,0 15.04,-1.76 21.87,-5.27 6.83,-3.52 12.83,-8.09 18,-13.72 5.17,-5.63 9.23,-11.96 12.19,-18.99 2.95,-7.03 4.43,-14.06 4.43,-21.1 0,-7.03 -3.42,-16.87 -10.25,-29.53 -6.83,-12.66 -15.41,-26.82 -25.75,-42.46 -10.34,-15.65 -21.5,-32 -33.5,-49.06 -12,-17.05 -23.17,-33.58 -33.5,-49.58 -10.34,-16 -18.92,-30.68 -25.75,-44.04 -6.83,-13.36 -10.25,-24.09 -10.25,-32.17 0,-6.69 -2.4,-10.9 -7.2,-12.66 -4.8,-1.76 -10.33,-1.15 -16.61,1.84 -6.27,2.99 -12.27,8.44 -17.99,16.35 -5.73,7.92 -9.7,18.03 -11.91,30.33 -1.48,8.44 -0.46,18.2 3.05,29.28 3.5,11.07 8.49,22.76 14.95,35.07 6.46,12.31 13.93,24.97 22.42,37.98 8.49,13.01 17.17,25.84 26.03,38.5 -7.75,-6.33 -15.78,-12.57 -24.09,-18.72 -8.3,-6.16 -16.52,-11.61 -24.64,-16.36 -8.12,-4.74 -16.06,-8.52 -23.81,-11.34 -7.75,-2.81 -14.95,-4.21 -21.6,-4.21 -6.27,0 -11.9,1.23 -16.89,3.69 -4.98,2.46 -9.13,5.63 -12.46,9.49 -3.32,3.87 -5.72,8.27 -7.2,13.19 -1.47,4.92 -1.84,10.02 -1.1,15.29 1.1,10.2 7.57,25.24 19.38,45.1 11.81,19.87 27.5,41.85 47.07,65.93 19.56,24.09 42.36,48.79 68.38,74.11 26.03,25.32 54.09,48.35 84.18,69.1 30.08,20.74 61.55,37.71 94.41,50.9 32.86,13.18 65.9,19.77 99.12,19.77 21.41,0 40.7,-3.16 57.87,-9.49 17.16,-6.33 31.56,-15.03 43.19,-26.11 11.63,-11.07 20.12,-24 25.47,-38.76 5.35,-14.77 6.93,-30.6 4.71,-47.48 -1.48,-9.84 -5.08,-20.04 -10.8,-30.59 -5.72,-10.55 -12.64,-21.01 -20.77,-31.38 -8.12,-10.37 -16.98,-20.4 -26.57,-30.07 -9.6,-9.67 -19.02,-18.63 -28.25,-26.9 -9.23,-8.26 -17.72,-15.47 -25.47,-21.62 -7.75,-6.15 -13.84,-10.81 -18.27,-13.98 4.79,-1.76 12.36,-5.19 22.7,-10.28 10.34,-5.1 20.31,-12.57 29.9,-22.42 9.6,-9.85 17.63,-22.42 24.09,-37.71 6.46,-15.3 8.22,-34.03 5.26,-56.18 -1.1,-7.38 -2.77,-14.77 -4.98,-22.15 15.13,11.6 28.98,25.5 41.53,41.67 l 0.98,1.24 c 0.5,0.82 1,1.64 1.51,2.45 9.05,14.42 19.38,27.96 31.01,40.62 11.63,12.65 23.63,23.64 35.99,32.96 12.37,9.32 24.65,16.61 36.83,21.89 12.18,5.27 23.26,7.91 33.22,7.91 15.51,0 28.8,-4.13 39.87,-12.39 11.08,-8.27 20.12,-18.02 27.14,-29.28 1.1,-1.75 0,-4.04 -3.32,-6.86 -3.33,-2.81 -11.26,-4.21 -23.82,-4.21 -15.13,0 -30.27,-4.66 -45.4,-13.99 -15.14,-9.31 -29.17,-20.91 -42.09,-34.8 -12.92,-13.89 -24.27,-28.93 -34.06,-45.1 -9.78,-16.18 -17.25,-31.21 -22.42,-45.1 -5.17,-13.89 -7.48,-25.5 -6.92,-34.81 0.55,-9.32 4.89,-13.98 13.01,-13.98 8.12,0 17.53,3.17 28.24,9.5 10.71,6.33 20.86,13.53 30.46,21.62 11.44,9.14 22.89,19.52 34.33,31.12 -1.11,2.46 -2.03,5.45 -2.77,8.97 -0.74,2.81 -1.29,6.15 -1.66,10.02 -0.37,3.87 -0.55,8.26 -0.55,13.19 0,10.55 2.86,19.51 8.58,26.89 5.72,7.39 12,12.23 18.83,14.51 6.83,2.29 13.1,1.58 18.83,-2.11 5.72,-3.69 8.58,-10.99 8.58,-21.89 0,-4.92 -2.4,-11.43 -7.2,-19.51 -4.8,-8.09 -11.63,-17.76 -20.49,-29.02 0.74,-0.7 2.31,-1.49 4.71,-2.37 2.4,-0.88 4.34,-1.31 5.81,-1.31 6.65,0 13.29,2.37 19.94,7.11 6.64,4.75 13.84,11.61 21.59,20.57 7.76,8.97 16.16,19.87 25.2,32.71 9.04,12.83 19.1,27.34 30.18,43.51 0.44,0.67 0.9,1.28 1.39,1.84 1.3,2.21 2.59,4.41 3.87,6.6 7.57,13.01 13.93,25.23 19.1,36.66 5.17,11.43 8.13,21.36 8.86,29.8 0.37,3.17 3.24,4.4 8.59,3.69 5.35,-0.7 11.07,-3.16 17.16,-7.38 6.09,-4.22 11.54,-10.11 16.34,-17.67 4.8,-7.56 6.83,-16.61 6.09,-27.17 -0.74,-7.03 -4.43,-16.61 -11.08,-28.74 -6.64,-12.13 -14.58,-25.23 -23.81,-39.3 -9.23,-14.06 -18.73,-28.3 -28.52,-42.72 -9.78,-14.42 -18.18,-27.52 -25.19,-39.29 -7.02,-11.79 -11.72,-21.37 -14.12,-28.75 -2.4,-7.38 -0.46,-11.08 5.81,-11.08 2.22,0 8.31,4.49 18.28,13.45 9.96,8.97 21.78,20.66 35.44,35.08 13.66,14.41 28.14,30.5 43.46,48.26 15.33,17.76 29.54,35.52 42.64,53.27 13.11,17.76 24.09,34.46 32.95,50.11 8.86,15.65 13.66,28.57 14.4,38.77 0.37,3.16 3.05,4.04 8.03,2.64 4.98,-1.41 10.43,-4.49 16.34,-9.23 5.9,-4.75 11.07,-11.26 15.5,-19.52 4.43,-8.26 6.28,-17.67 5.53,-28.22 -0.36,-7.03 -3.87,-16.53 -10.52,-28.48 -6.64,-11.96 -14.39,-24.79 -23.25,-38.5 -8.86,-13.72 -18.09,-27.61 -27.69,-41.68 -9.6,-14.06 -17.9,-26.72 -24.92,-37.97 -7.01,-11.25 -11.72,-20.48 -14.12,-27.69 -2.4,-7.21 -0.83,-10.82 4.71,-10.82 2.95,0 7.66,2.38 14.12,7.13 6.46,4.74 14.12,11.25 22.98,19.51 8.86,8.26 18.55,17.84 29.07,28.75 10.52,10.9 21.23,22.42 32.12,34.55 10.89,12.13 21.41,24.44 31.56,36.92 10.16,12.48 19.29,24.7 27.41,36.66 1.85,2.81 4.16,4.57 6.93,5.27 0.29,0.07 0.57,0.14 0.86,0.19 5.56,9.68 11.27,19.54 17.13,29.61 10.34,17.76 20.95,35.87 31.84,54.33 10.89,18.46 21.51,36.48 31.84,54.06 -9.6,-0.7 -19.56,-1.05 -29.9,-1.05 -10.33,0 -21.04,0 -32.12,0 -15.5,0 -28.61,1.32 -39.32,3.95 -10.7,2.64 -19.65,6.07 -26.85,10.29 -7.2,4.22 -12.83,8.96 -16.89,14.24 -4.06,5.27 -7.2,10.55 -9.42,15.82 -3.32,9.15 -3.41,14.77 -0.27,16.88 3.14,2.11 7.11,1.23 11.91,-2.64 8.12,-6.32 19.01,-12.04 32.67,-17.14 13.66,-5.1 30.08,-7.65 49.28,-7.65 16.61,0 32.02,0.45 46.24,1.32 14.21,0.88 26.12,1.85 35.71,2.9 14.03,24.97 25.39,46.95 34.06,65.94 8.67,18.98 13.01,32.88 13.01,41.66 0,3.87 2.77,5.63 8.31,5.28 5.54,-0.35 11.72,-2.9 18.55,-7.65 6.83,-4.75 13.01,-11.6 18.55,-20.57 5.54,-8.97 8.31,-20.13 8.31,-33.49 0,-4.57 -1.67,-11.08 -4.99,-19.52 -3.32,-8.44 -8.12,-18.28 -14.39,-29.54 h 16.05 c 17.36,0 32.4,-2.02 45.13,-6.06 l 0.61,-0.2 0.23,0.46 c 3.32,6.69 7.01,11.96 11.07,15.83 4.06,3.86 8.3,6.68 12.74,8.43 4.43,1.76 8.3,2.64 11.62,2.64 3.33,0 7.85,-0.96 13.57,-2.9 5.73,-1.93 11.36,-4.48 16.89,-7.65 5.54,-3.16 10.25,-6.77 14.12,-10.81 3.88,-4.04 5.63,-8.35 5.26,-12.92 -0.36,-4.58 -1.66,-8.35 -3.88,-11.34 -2.21,-2.99 -4.98,-6.07 -8.3,-9.23 -3.32,-3.17 -7.01,-6.95 -11.07,-11.35 -1.5,-1.62 -3.03,-3.42 -4.58,-5.4 2.42,-4.54 4.32,-8.98 5.68,-13.32 1.48,-4.92 1.48,-8.53 0,-10.81 -1.47,-2.29 -3.14,-3.78 -4.98,-4.48 -2.59,-1.06 -5.54,-1.41 -8.86,-1.06 0,3.19 -1.44,6.86 -4.33,11 -2.34,-3.79 -4.22,-6.93 -5.64,-9.42 -2.21,-3.86 -4.06,-6.68 -5.54,-8.44 -1.47,-1.75 -2.76,-2.81 -3.87,-3.16 -1.11,-0.35 -2.77,-0.53 -4.99,-0.53 -3.32,0 -6.92,1.32 -10.79,3.96 -3.88,2.64 -7.48,6.59 -10.8,11.87 -3.32,5.27 -6,11.69 -8.03,19.25 -1.4,5.22 -2.06,10.9 -1.96,17.04 -11.68,3.23 -25.15,4.85 -40.4,4.85 -5.91,0 -11.72,0 -17.45,0 -5.72,0 -11.35,-0.18 -16.88,-0.53 -11.45,-19.69 -24.19,-40.88 -38.21,-63.56 -14.03,-22.68 -28.06,-45.36 -42.09,-68.04 -14.03,-22.68 -27.32,-44.48 -39.87,-65.4 -12.55,-20.93 -22.79,-39.48 -30.73,-55.65 -7.94,-16.18 -12.92,-29.1 -14.95,-38.77 -2.03,-9.67 0.27,-14.5 6.92,-14.5 4.06,0 12.27,4.92 24.64,14.76 12.37,9.85 26.3,22.42 41.81,37.72 15.5,15.29 31.47,32.18 47.9,50.63 16.42,18.46 30.73,36.48 42.91,54.07 1.49,2.26 3.28,3.9 5.36,4.91 l 1.01,1.68 c 9.41,15.65 17.45,31.39 24.09,47.21 1.11,2.46 1.84,5.1 2.22,7.91 0.36,2.81 0.92,5.36 1.66,7.65 0.73,2.28 1.84,4.13 3.32,5.53 1.48,1.41 3.87,2.12 7.2,2.12 3.32,0 7.19,-1.32 11.62,-3.96 4.44,-2.64 8.5,-6.5 12.19,-11.6 3.69,-5.1 6.64,-11.52 8.86,-19.26 2.22,-7.73 2.77,-16.7 1.66,-26.89 -0.74,-7.04 -4.25,-16.09 -10.52,-27.17 -6.28,-11.08 -13.57,-22.94 -21.87,-35.6 -8.31,-12.66 -16.71,-25.41 -25.2,-38.24 -8.49,-12.84 -15.14,-24.53 -19.93,-35.08 -4.8,-10.55 -6.92,-19.07 -6.37,-25.58 0.55,-6.51 5.63,-9.76 15.22,-9.76 4.07,0 12.09,4.93 24.09,14.77 12,9.85 25.48,22.42 40.42,37.71 7.83,8.01 15.81,16.48 23.95,25.4 6.49,12.28 14.66,24.92 24.51,37.9 11.08,14.59 23.72,29.01 37.93,43.25 14.21,14.24 28.61,26.99 43.19,38.24 14.58,11.25 28.71,20.39 42.37,27.43 13.65,7.03 25.65,10.55 35.99,10.55 8.12,0 15.5,-2.73 22.15,-8.18 6.64,-5.45 11.9,-11.43 15.78,-17.93 3.88,-6.51 6.28,-12.48 7.2,-17.94 0.92,-5.45 -0.09,-8.17 -3.05,-8.17 -18.82,0 -37.56,-4.57 -56.2,-13.71 -18.64,-9.15 -36,-20.49 -52.05,-34.03 -16.06,-13.54 -30.37,-28.3 -42.92,-44.3 -12.55,-16 -22.06,-30.77 -28.52,-44.31 -6.46,-13.54 -9.41,-24.88 -8.86,-34.02 0.56,-9.14 6,-13.71 16.34,-13.71 2.21,0 7.01,3.07 14.39,9.23 7.39,6.15 15.97,13.97 25.75,23.47 9.79,9.49 20.03,19.87 30.74,31.12 10.71,11.25 20.39,21.89 29.07,31.91 8.67,10.02 15.6,18.64 20.76,25.84 5.18,7.21 7.39,11.7 6.65,13.46 -1.47,2.46 -0.46,3.68 3.05,3.68 3.5,0 7.57,-1.49 12.18,-4.48 4.61,-2.98 8.95,-7.47 13.01,-13.45 4.06,-5.98 6.09,-13.71 6.09,-23.2 0,-9.85 -4.8,-24.35 -14.39,-43.52 -9.61,-19.16 -22.71,-40.88 -39.32,-65.14 7.75,4.92 18.18,13.71 31.29,26.37 13.1,12.66 27.04,27.17 41.8,43.52 14.77,16.35 29.53,33.49 44.3,51.42 14.77,17.94 27.69,34.64 38.77,50.11 0.89,1.36 1.89,2.5 2.99,3.4 0.58,0.98 1.14,1.95 1.71,2.93 7.57,13.01 13.94,25.23 19.11,36.66 5.17,11.43 8.12,21.36 8.86,29.8 0.36,3.17 3.23,4.4 8.58,3.69 5.35,-0.7 11.07,-3.16 17.16,-7.38 6.1,-4.22 11.54,-10.11 16.34,-17.67 4.8,-7.56 6.83,-16.61 6.09,-27.17 -0.73,-7.03 -4.43,-16.61 -11.07,-28.74 -6.65,-12.13 -14.58,-25.23 -23.81,-39.3 -9.23,-14.06 -18.74,-28.3 -28.52,-42.72 -9.78,-14.42 -18.18,-27.52 -25.2,-39.29 -7.01,-11.79 -11.72,-21.37 -14.12,-28.75 -2.4,-7.38 -0.46,-11.08 5.82,-11.08 2.21,0 8.3,4.49 18.27,13.45 9.97,8.97 21.78,20.66 35.44,35.08 13.66,14.41 28.15,30.5 43.47,48.26 15.32,17.76 29.54,35.52 42.64,53.27 13.1,17.76 24.09,34.46 32.95,50.11 8.86,15.65 13.66,28.57 14.4,38.77 0.36,3.16 3.04,4.04 8.02,2.64 4.99,-1.41 10.43,-4.49 16.34,-9.23 5.9,-4.75 11.08,-11.26 15.5,-19.52 4.43,-8.26 6.28,-17.67 5.54,-28.22 -0.37,-7.03 -3.87,-16.53 -10.52,-28.48 -6.65,-11.96 -14.4,-24.79 -23.26,-38.5 -8.86,-13.72 -18.09,-27.61 -27.68,-41.68 -9.6,-14.06 -17.91,-26.72 -24.93,-37.97 -7.01,-11.25 -11.71,-20.48 -14.11,-27.69 -2.4,-7.21 -0.83,-10.82 4.7,-10.82 2.95,0 7.66,2.38 14.13,7.13 6.45,4.74 14.11,11.25 22.98,19.51 8.85,8.26 18.54,17.84 29.07,28.75 10.52,10.9 21.22,22.42 32.11,34.55 10.89,12.13 21.42,24.44 31.57,36.92 1.02,1.25 2.02,2.5 3.02,3.75 1.53,2.28 3.11,4.54 4.73,6.8 4.5,6.24 9.22,12.31 14.17,18.2 1.88,2.65 3.71,5.28 5.49,7.91 1.62,2.46 3.59,4.12 5.92,4.96 3.12,3.33 6.31,6.6 9.58,9.81 12.92,12.65 25.57,23.73 37.93,33.23 12.37,9.49 23.91,16.87 34.61,22.15 10.71,5.27 19.2,7.91 25.48,7.91 3.69,0 7.75,-0.79 12.18,-2.37 4.43,-1.59 8.58,-4.49 12.46,-8.71 3.88,-4.22 7.2,-10.19 9.97,-17.93 2.76,-7.74 4.15,-17.94 4.15,-30.59 0,-8.44 -2.96,-17.67 -8.86,-27.69 -5.91,-10.03 -13.47,-20.05 -22.7,-30.07 -9.24,-10.02 -19.48,-19.78 -30.74,-29.27 -11.26,-9.5 -22.34,-17.94 -33.22,-25.32 -10.89,-7.39 -20.86,-13.27 -29.91,-17.67 -9.04,-4.4 -15.96,-6.6 -20.76,-6.6 -3.32,-6.68 -5.54,-12.65 -6.65,-17.93 -0.73,-4.57 -0.27,-8.61 1.39,-12.13 1.66,-3.51 6.18,-5.27 13.56,-5.27 9.24,0 21.79,4.65 37.66,13.97 15.88,9.32 32.76,21.28 50.67,35.87 17.9,14.6 35.53,30.94 52.88,49.05 17.35,18.11 32.12,35.96 44.3,53.54 2.21,2.81 4.62,4.66 7.2,5.54 2.58,0.88 4.89,0.79 6.92,-0.27 2.03,-1.05 3.14,-2.98 3.32,-5.8 0.19,-2.81 -1.2,-6.33 -4.15,-10.55 -1.85,-2.81 -6.83,-9.05 -14.95,-18.72 -8.12,-9.67 -18.27,-20.92 -30.46,-33.76 -12.18,-12.83 -25.65,-26.37 -40.42,-40.61 -14.77,-14.24 -29.81,-27.25 -45.13,-39.03 -15.32,-11.78 -30.27,-21.54 -44.85,-29.28 -14.59,-7.73 -27.78,-11.6 -39.6,-11.6 -9.97,0.7 -18.83,3.52 -26.58,8.44 -6.65,4.22 -12.73,10.64 -18.27,19.25 -5.54,8.61 -8.31,21.19 -8.31,37.71 0,9.72 1.26,19.48 3.76,29.27 -4.08,-4.6 -8.28,-9.26 -12.62,-13.97 -12.92,-14.07 -25.84,-27.08 -38.76,-39.03 -12.92,-11.96 -25.28,-21.89 -37.1,-29.8 -11.81,-7.91 -21.97,-11.87 -30.46,-11.87 -9.96,0 -18.36,3.34 -25.19,10.02 -6.83,6.68 -11.82,14.6 -14.95,23.74 -3.14,9.14 -4.25,18.72 -3.33,28.74 0.93,10.02 4.16,18.55 9.69,25.58 -12.55,-16.52 -24.91,-31.29 -37.1,-44.3 -5.17,-5.63 -10.52,-11.08 -16.06,-16.35 -5.53,-5.28 -11.07,-9.93 -16.61,-13.98 -5.53,-4.04 -10.89,-7.3 -16.06,-9.76 -5.17,-2.46 -9.78,-3.69 -13.84,-3.69 -5.91,0 -11.72,1.05 -17.44,3.25 -5.73,2.11 -10.8,5.54 -15.23,10.29 -4.43,4.66 -7.85,10.55 -10.25,17.58 -2.4,7.03 -3.23,15.65 -2.49,25.84 0.37,5.98 3.14,14.07 8.31,24.27 0.38,0.75 0.77,1.52 1.17,2.29 -1.49,-1.72 -2.98,-3.45 -4.49,-5.19 -13.29,-15.3 -26.68,-29.63 -40.15,-42.99 -13.47,-13.36 -26.4,-24.7 -38.76,-34.02 -12.37,-9.32 -22.98,-14.68 -31.84,-16.09 v -0.53 c -12.93,-19.69 -25.11,-39.11 -36.55,-58.28 -11.45,-19.167 -21.41,-36.659 -29.9,-52.479 -8.49,-15.828 -15.14,-29.367 -19.94,-40.617 -4.8,-11.254 -7.2,-18.813 -7.2,-22.68 0,-5.274 -2.12,-8.176 -6.37,-8.703 -4.24,-0.528 -8.86,0.793 -13.84,3.957 -4.98,3.16 -9.5,7.996 -13.56,14.504 -4.07,6.504 -6.1,13.976 -6.1,22.418 0,6.679 2.77,16.437 8.31,29.273 5.54,12.832 12.83,27.426 21.87,43.777 9.05,16.35 19.29,33.93 30.73,52.75 11.45,18.81 23.26,37.71 35.45,56.7 5.16,8.09 10.15,16.17 14.94,24.26 4.81,8.09 9.23,15.29 13.3,21.63 4.43,7.38 8.86,14.23 13.29,20.57 -16.25,-17.23 -31.38,-32.53 -45.41,-45.89 -5.91,-5.98 -11.91,-11.7 -18,-17.14 -6.09,-5.46 -11.91,-10.29 -17.44,-14.51 -5.54,-4.22 -10.43,-7.65 -14.67,-10.28 -4.25,-2.64 -7.66,-3.96 -10.25,-3.96 -5.17,0 -10.71,1.67 -16.61,5.01 -5.91,3.34 -11.54,8 -16.89,13.98 -5.35,5.98 -9.78,12.92 -13.29,20.83 -3.51,7.91 -5.26,16.62 -5.26,26.11 0,0.28 0,0.57 0.01,0.86 -8.31,-8.71 -16.62,-16.91 -24.93,-24.6 -12.92,-11.95 -25.29,-21.8 -37.1,-29.53 -11.82,-7.74 -21.97,-11.61 -30.46,-11.61 -10.7,0 -19.38,2.38 -26.02,7.13 -6.65,4.74 -11.82,10.72 -15.51,17.93 -3.69,7.21 -6.09,15.03 -7.2,23.47 -1.11,8.44 -1.29,16.17 -0.55,23.21 0.66,8.47 3.67,18.12 9.03,28.97 -6.23,-6.92 -12.75,-14.03 -19.55,-21.33 -13.29,-14.24 -26.49,-27.33 -39.6,-39.29 -13.1,-11.96 -25.65,-21.8 -37.65,-29.54 -12,-7.73 -22.24,-11.6 -30.73,-11.6 -10.34,0 -18.65,2.02 -24.92,6.07 -6.28,4.04 -11.17,9.05 -14.68,15.03 -3.5,5.97 -5.81,12.57 -6.92,19.78 -1.1,7.21 -1.66,13.97 -1.66,20.3 0,5.98 2.03,14.34 6.09,25.06 3.44,9.08 7.93,19.29 13.49,30.63 -9.72,-11.64 -20.3,-23.7 -31.76,-36.17 -12.92,-14.07 -25.84,-27.08 -38.76,-39.03 -12.92,-11.96 -25.29,-21.89 -37.1,-29.8 -11.82,-7.91 -21.97,-11.87 -30.46,-11.87 -9.97,0 -18.37,3.34 -25.2,10.02 -6.82,6.68 -11.81,14.6 -14.95,23.74 -3.14,9.14 -4.24,18.72 -3.32,28.74 0.92,10.02 4.15,18.55 9.69,25.58 -12.55,-16.52 -24.92,-31.29 -37.1,-44.3 -5.17,-5.63 -10.52,-11.08 -16.06,-16.35 -5.54,-5.28 -11.08,-9.93 -16.61,-13.98 -5.54,-4.04 -10.89,-7.3 -16.06,-9.76 -5.17,-2.46 -9.79,-3.69 -13.84,-3.69 -5.91,0 -11.73,1.05 -17.45,3.25 -5.72,2.11 -10.8,5.54 -15.23,10.29 -4.43,4.66 -7.84,10.55 -10.24,17.58 -2.4,7.03 -3.23,15.65 -2.49,25.84 0.32,5.17 2.42,11.91 6.33,20.22 -3.35,-2.49 -6.76,-4.75 -10.21,-6.77 -8.12,-4.74 -16.05,-7.12 -23.81,-7.12 -4.06,0 -7.85,0.71 -11.35,2.11 -3.51,1.41 -6.37,2.99 -8.59,4.75 -2.21,-2.81 -4.24,-5.1 -6.09,-6.86 -0.73,-0.35 -1.47,-1.05 -2.21,-2.11 -0.74,-0.7 -1.57,-1.58 -2.49,-2.63 -0.92,-1.06 -1.94,-2.29 -3.05,-3.7 -13.29,-13.36 -27.69,-25.14 -43.19,-35.33 -15.5,-10.2 -31.01,-16.36 -46.51,-18.47 -0.37,-0.35 -0.93,-0.52 -1.67,-0.52 -1.47,0 -2.4,-0.18 -2.77,-0.53 h -5.54 c -5.53,0 -11.71,0.88 -18.54,2.64 -6.83,1.75 -13.29,5.01 -19.39,9.75 -6.08,4.75 -11.16,11.43 -15.22,20.05 -4.06,8.61 -6.1,19.95 -6.1,34.02 0,14.64 2.3,29.28 6.88,43.92 -10.19,-9.06 -20.6,-17.54 -31.24,-25.46 -7.01,-16.53 -16.06,-33.58 -27.14,-51.16 -11.07,-17.58 -23.43,-34.73 -37.09,-51.43 -13.66,-16.71 -28.34,-32.53 -44.03,-47.47 -15.68,-14.947 -31.74,-28.134 -48.17,-39.56 -16.43,-11.43 -32.95,-20.656 -49.56,-27.691 -16.61,-7.031 -32.67,-10.903 -48.18,-11.606 h 0.55 -3.32 -2.21 c -18.83,1.055 -31.66,6.157 -38.49,15.297 -6.83,9.141 -9.14,20.57 -6.92,34.285 1.11,8.789 6.18,18.105 15.23,27.955 9.04,9.85 20.39,19.87 34.05,30.06 13.66,10.2 28.89,20.31 45.69,30.33 16.79,10.03 33.77,19.78 50.94,29.28 17.17,9.49 33.78,18.55 49.84,27.16 16.06,8.61 29.99,16.44 41.81,23.47 z m 1634.11,123.96 c -2.21,0 -5.35,-1.59 -9.42,-4.75 -4.06,-3.17 -8.4,-7.39 -13.01,-12.66 -4.61,-5.28 -9.6,-11.25 -14.95,-17.93 -5.35,-6.69 -10.61,-13.37 -15.78,-20.05 -12.18,-16.52 -25.29,-34.98 -39.32,-55.38 18.83,10.55 35.07,22.24 48.73,35.07 13.66,12.84 24.55,24.88 32.67,36.13 8.12,11.26 13.11,20.66 14.95,28.22 1.85,7.57 0.56,11.35 -3.87,11.35 z m -1854.5,127.64 c -1.85,-1.76 -3.6,-3.69 -5.26,-5.8 -1.67,-2.12 -3.42,-4.23 -5.27,-6.33 0.37,0.7 0.93,1.4 1.66,2.1 0.75,0.71 1.3,1.41 1.67,2.11 0.37,0.71 0.92,1.41 1.66,2.12 1.47,1.75 3.32,3.69 5.54,5.8 z m 16.61,-437.788 c 8.49,0 20.12,4.308 34.88,12.922 14.77,8.613 30.37,19.781 46.8,33.496 16.43,13.71 32.67,29.18 48.73,46.41 16.05,17.23 29.81,34.64 41.25,52.22 -10.34,-5.98 -21.87,-12.66 -34.61,-20.04 -12.74,-7.39 -25.56,-15.04 -38.48,-22.95 -12.93,-7.91 -25.66,-15.91 -38.21,-24 -12.56,-8.08 -23.72,-16.08 -33.5,-24 -9.79,-7.91 -17.91,-15.29 -24.37,-22.148 -6.46,-6.856 -10.06,-13.098 -10.8,-18.727 -0.74,-3.511 -0.55,-6.59 0.56,-9.226 1.1,-2.637 3.69,-3.957 7.75,-3.957 z" />
    </clipPath>
    <linearGradient
       id="linearGradient107"
       spreadMethod="pad"
       gradientTransform="matrix(10,0,0,10,-430,-3840)"
       gradientUnits="userSpaceOnUse"
       y2="545.66602"
       x2="480.92599"
       y1="471.944"
       x1="480.92599">
      <stop
         id="stop93"
         offset="0"
         style="stop-opacity:1;stop-color:#2f123e" />
      <stop
         id="stop95"
         offset="0.171875"
         style="stop-opacity:1;stop-color:#591868" />
      <stop
         id="stop97"
         offset="0.453125"
         style="stop-opacity:1;stop-color:#ca2098" />
      <stop
         id="stop99"
         offset="0.5"
         style="stop-opacity:1;stop-color:#da80bb" />
      <stop
         id="stop101"
         offset="0.5625"
         style="stop-opacity:1;stop-color:#ca2098" />
      <stop
         id="stop103"
         offset="0.8125"
         style="stop-opacity:1;stop-color:#591868" />
      <stop
         id="stop105"
         offset="1"
         style="stop-opacity:1;stop-color:#2e0e33" />
    </linearGradient>
  </defs>
  <sodipodi:namedview
     id="base"
     pagecolor="#ffffff"
     bordercolor="#ffffff"
     borderopacity="0"
     inkscape:pageopacity="0.0"
     inkscape:pageshadow="2"
     inkscape:zoom="0.35"
     inkscape:cx="639.23818"
     inkscape:cy="-26.256407"
     inkscape:document-units="mm"
     inkscape:current-layer="layer1"
     showgrid="false"
     inkscape:window-width="1311"
     inkscape:window-height="713"
     inkscape:window-x="55"
     inkscape:window-y="27"
     inkscape:window-maximized="1"
     fit-margin-top="0"
     fit-margin-left="0"
     fit-margin-right="0"
     fit-margin-bottom="0" />
  <metadata
     id="metadata707">
    <rdf:RDF>
      <cc:Work
         rdf:about="">
        <dc:format>image/svg+xml</dc:format>
        <dc:type
           rdf:resource="http://purl.org/dc/dcmitype/StillImage" />
        <dc:title></dc:title>
      </cc:Work>
    </rdf:RDF>
  </metadata>
  <g
     inkscape:label="Capa 1"
     inkscape:groupmode="layer"
     id="layer1"
     transform="translate(-264.25216,-201.47083)">
    <g
       id="g540"
       transform="matrix(1.4995577,0,0,1.4995577,242.615,139.01794)">
      <g
         transform="matrix(0.0270938,0,0,-0.0270938,-72.879896,131.27735)"
         id="g41">
        <g
           id="g43"
           clip-path="url(#clipPath47)">
          <path
             d="m 3443.7,2160.41 c 31.7,0 60.26,5.56 85.68,16.68 25.42,11.13 48,25.29 67.74,42.48 19.74,17.18 36.34,36.23 49.8,57.13 13.46,20.89 23.78,40.78 30.95,59.66 -19.14,13.48 -40.67,25.62 -64.6,36.41 -20.34,9.43 -44.11,17.86 -71.32,25.27 -27.22,7.42 -56.38,11.13 -87.49,11.13 -51.44,0 -92.26,-6.07 -122.46,-18.21 -30.21,-12.13 -51.29,-27.46 -63.26,-46 -11.96,-18.54 -16,-38.6 -12.11,-60.17 3.89,-21.58 14.06,-41.63 30.51,-60.17 16.45,-18.54 38.13,-33.87 65.04,-46.01 26.92,-12.13 57.43,-18.2 91.52,-18.2 z m 770.71,1062.78 c -3.59,0 -9.87,-7.08 -18.85,-21.24 -8.97,-14.15 -19.74,-32.69 -32.3,-55.61 -12.56,-22.92 -26.16,-49.21 -40.82,-78.88 -14.65,-29.66 -29.46,-59.66 -44.41,-89.99 -35.29,-71.46 -73.87,-153.03 -115.74,-244.72 17.34,0 37.08,12.14 59.21,36.41 22.14,24.27 44.27,54.6 66.4,91.01 22.13,36.4 42.92,75.67 62.35,117.8 19.45,42.14 35.59,81.41 48.45,117.81 12.87,36.4 21.09,66.74 24.68,91.01 3.58,24.27 0.6,36.4 -8.97,36.4 z m 417.2,-1133.56 c 5.98,-3.38 11.07,-11.47 15.25,-24.27 4.19,-12.81 6.73,-27.81 7.63,-45 0.9,-17.19 -0.15,-35.73 -3.14,-55.62 -2.99,-19.89 -8.97,-38.6 -17.95,-56.12 -11.96,-23.6 -29.9,-44.49 -53.83,-62.7 -23.93,-18.2 -53.53,-30.33 -88.82,-36.4 -35.29,-6.07 -75.82,-4.55 -121.57,4.55 -45.76,9.1 -96.16,28.82 -151.18,59.16 -43.07,23.59 -83.89,51.4 -122.48,83.42 -38.57,32.02 -76.11,65.73 -112.59,101.12 -36.49,35.39 -72.83,71.12 -109.02,107.19 -36.18,36.07 -73.12,69.94 -110.8,101.63 0,0 -2.25,-5.23 -6.73,-15.68 -4.49,-10.45 -11.67,-23.25 -21.53,-38.42 -9.87,-15.17 -23.03,-31.52 -39.48,-49.05 -16.45,-17.53 -36.64,-33.87 -60.57,-49.04 -23.92,-15.17 -52.18,-27.81 -84.78,-37.92 -32.6,-10.11 -69.83,-15.17 -111.7,-15.17 -47.86,0 -87.93,10.28 -120.23,30.84 -32.3,20.56 -56.52,46.35 -72.68,77.36 -16.14,31.01 -23.77,64.55 -22.87,100.62 0.89,36.06 10.17,69.6 27.81,100.61 17.64,31.01 43.96,56.8 78.95,77.36 35,20.56 79.11,30.84 132.34,30.84 23.33,0 47.11,-2.87 71.33,-8.6 24.23,-5.73 46.96,-12.46 68.19,-20.22 21.23,-7.75 40.22,-15.67 56.97,-23.76 16.75,-8.09 29.31,-14.16 37.69,-18.2 0.59,-0.68 1.79,-1.35 3.58,-2.03 1.2,-0.67 2.4,-1.18 3.59,-1.51 1.2,-0.34 2.4,-0.85 3.6,-1.52 1.19,2.7 4.33,10.45 9.41,23.26 5.09,12.8 11.67,29.32 19.74,49.55 8.08,20.22 17.8,43.82 29.16,70.78 11.37,26.97 23.93,56.29 37.69,87.98 -19.15,0.67 -37.99,2.69 -56.53,6.06 -41.27,6.75 -75.36,20.23 -102.28,40.45 -26.92,20.23 -47.85,44.66 -62.81,73.32 -14.95,28.65 -24.07,60.16 -27.36,94.54 -3.29,34.39 -1.65,69.61 4.93,105.67 6.58,36.07 17.65,71.46 33.2,106.18 15.55,34.72 34.69,66.57 57.42,95.56 20.94,26.96 46.06,48.03 75.37,63.2 29.31,15.17 58.17,26.29 86.58,33.37 28.41,7.08 54.13,11.12 77.16,12.14 23.03,1.01 39.03,0.84 48,-0.51 32.9,-6.06 44.26,-15.17 34.09,-27.3 -4.18,-5.4 -8.37,-8.09 -12.56,-8.09 -4.18,0 -8.37,0.67 -12.56,2.02 -4.78,2.02 -9.27,5.06 -13.46,9.1 -19.73,-2.02 -40.67,-7.75 -62.8,-17.19 -19.14,-8.09 -40.37,-20.73 -63.7,-37.92 -23.33,-17.19 -47.26,-41.63 -71.78,-73.31 -38.28,-49.21 -63.7,-96.91 -76.27,-143.09 -12.55,-46.17 -15.69,-87.81 -9.42,-124.88 6.28,-37.08 20.34,-67.92 42.17,-92.53 21.84,-24.6 48.6,-39.6 80.31,-45 4.78,-0.67 10.46,-1.35 17.04,-2.02 11.37,-1.35 26.62,-1.35 45.76,0 19.74,43.82 40.97,89.16 63.7,136.01 22.73,46.85 46.06,92.69 69.98,137.52 23.93,44.83 48.3,87.14 73.13,126.91 24.82,39.78 49.19,74.83 73.12,105.16 23.93,30.34 47.11,54.27 69.53,71.8 22.43,17.53 43.52,26.29 63.26,26.29 8.37,0 14.5,-4.55 18.39,-13.65 3.89,-9.1 6.58,-20.05 8.07,-32.86 1.5,-12.81 1.95,-26.29 1.35,-40.45 -0.6,-14.16 -1.19,-25.96 -1.79,-35.39 -4.79,-51.91 -13.16,-99.44 -25.12,-142.58 -11.97,-43.15 -26.32,-82.42 -43.07,-117.81 -16.75,-35.39 -34.99,-66.91 -54.73,-94.55 -19.74,-27.64 -39.78,-51.91 -60.12,-72.8 -47.25,-49.22 -99.29,-87.98 -156.11,-116.29 l -130.09,-299.32 c 37.68,-26.29 75.81,-54.27 114.39,-83.93 38.58,-29.66 76.86,-58.99 114.84,-87.98 37.98,-28.98 75.52,-56.63 112.6,-82.92 37.09,-26.29 72.67,-48.87 106.77,-67.75 43.07,-23.6 83.14,-41.46 120.23,-53.6 37.08,-12.13 70.43,-18.7 100.04,-19.71 29.61,-1.01 54.88,3.2 75.81,12.64 20.94,9.43 36.49,23.93 46.66,43.48 5.38,10.79 9.27,21.91 11.66,33.37 2.39,11.46 4.64,21.74 6.73,30.84 2.09,9.1 4.48,15.84 7.18,20.23 2.69,4.38 6.73,5.22 12.11,2.53"
             style="fill:url(#linearGradient59);fill-opacity:1;fill-rule:nonzero;stroke:none"
             id="path61"
             inkscape:connector-curvature="0" />
        </g>
      </g>
      <g
         transform="matrix(0.0270938,0,0,-0.0270938,-72.589614,135.59532)"
         id="g63">
        <g
           id="g65"
           clip-path="url(#clipPath69)">
          <path
             d="m 4792.02,3228.25 c -19.73,0 -43.81,-5.06 -72.22,-15.17 -28.41,-10.12 -58.17,-24.1 -89.28,-41.97 -31.1,-17.86 -61.9,-39.1 -92.41,-63.7 -30.5,-24.61 -57.87,-51.41 -82.09,-80.39 -24.23,-28.99 -43.97,-60 -59.22,-93.04 -15.25,-33.03 -22.88,-66.4 -22.88,-100.1 0,-28.32 9.12,-49.89 27.37,-64.72 18.24,-14.83 41.71,-22.25 70.43,-22.25 16.74,0 31.7,2.87 44.86,8.6 13.16,5.72 22.73,16.01 28.71,30.84 4.78,11.46 5.98,22.58 3.59,33.37 -2.4,10.78 -5.99,20.39 -10.77,28.82 -4.79,8.42 -9.57,15.34 -14.35,20.73 -4.79,5.39 -6.88,8.76 -6.28,10.11 1.79,6.07 5.38,9.78 10.76,11.12 5.39,1.35 10.47,0.51 15.25,-2.52 4.79,-3.04 7.48,-4.89 8.08,-5.57 1.2,-2.02 2.99,-4.38 5.38,-7.07 2.99,-3.38 6.58,-9.78 10.77,-19.22 2.99,-7.41 4.78,-17.36 5.38,-29.83 0.6,-12.47 -2.39,-26.79 -8.97,-42.97 -10.17,-24.27 -26.62,-42.98 -49.34,-56.13 -22.74,-13.14 -48.16,-19.72 -76.27,-19.72 -25.72,0 -48.75,4.05 -69.09,12.14 -20.33,8.09 -37.68,18.87 -52.03,32.35 -14.36,13.49 -25.27,29.5 -32.75,48.04 -7.48,18.54 -11.22,38.26 -11.22,59.16 0,30.33 7.18,61.34 21.53,93.03 14.36,31.68 33.95,62.52 58.77,92.52 24.83,30 53.99,58.31 87.48,84.94 33.5,26.63 69.84,49.89 109.01,69.78 39.18,19.88 80.01,35.56 122.48,47.02 42.46,11.46 84.93,17.19 127.4,17.19 33.49,0 60.26,-7.25 80.3,-21.74 20.03,-14.5 35.29,-31.86 45.76,-52.08 10.46,-20.22 17.34,-41.29 20.63,-63.2 3.29,-21.91 4.94,-39.94 4.94,-54.1 0,-25.62 -7.18,-55.79 -21.54,-90.5 -14.35,-34.72 -32.15,-70.96 -53.38,-108.71 -21.24,-37.75 -44.41,-75.33 -69.54,-112.75 -25.12,-37.41 -48.29,-71.96 -69.53,-103.65 -21.23,-31.68 -39.03,-58.65 -53.38,-80.89 -14.36,-22.25 -21.54,-37.08 -21.54,-44.5 64,75.51 122.32,142.92 174.96,202.25 22.13,24.94 44.41,49.71 66.84,74.32 22.43,24.61 43.07,46.35 61.91,65.22 18.84,18.88 35.14,34.22 48.9,46.01 13.75,11.8 23.33,17.7 28.71,17.7 10.77,0 20.93,-3.2 30.5,-9.61 9.57,-6.4 18.1,-14.16 25.57,-23.25 7.48,-9.11 13.47,-18.88 17.95,-29.33 4.48,-10.45 6.73,-19.38 6.73,-26.8 0,-6.07 -1.94,-13.82 -5.83,-23.26 -3.89,-9.43 -9.12,-20.22 -15.7,-32.35 -6.58,-12.14 -14.06,-24.78 -22.43,-37.92 -8.38,-13.15 -16.75,-26.12 -25.13,-38.94 -19.73,-30.33 -42.46,-63.03 -68.19,-98.08 -34.09,-48.54 -66.39,-96.57 -96.9,-144.1 -30.5,-47.53 -54.72,-90.84 -72.67,-129.94 6.58,7.41 16.3,18.7 29.16,33.87 12.86,15.17 27.82,32.53 44.86,52.08 17.05,19.55 35.44,40.62 55.18,63.2 19.74,22.59 40.08,45.68 61.01,69.27 50.84,57.3 91.07,101.62 120.68,132.97 29.61,31.35 52.03,54.27 67.28,68.77 15.26,14.49 25.28,22.92 30.06,25.28 4.79,2.36 8.08,3.54 9.87,3.54 9.57,0 18.7,-2.87 27.37,-8.6 8.67,-5.73 16.15,-12.64 22.43,-20.73 6.28,-8.09 11.36,-16.69 15.25,-25.79 3.89,-9.1 5.83,-17.02 5.83,-23.76 0,-10.79 -5.98,-25.95 -17.94,-45.5 -11.96,-19.55 -27.22,-43.15 -45.76,-70.79 -13.76,-20.89 -28.86,-43.31 -45.31,-67.24 -16.45,-23.94 -31.7,-49.21 -45.76,-75.84 -14.05,-26.63 -25.86,-54.78 -35.43,-84.44 -9.58,-29.66 -14.36,-60.67 -14.36,-93.03 0,-39.77 5.53,-76.35 16.6,-109.72 11.07,-33.37 25.57,-62.19 43.51,-86.46 17.95,-24.27 38.29,-43.31 61.01,-57.13 22.73,-13.82 45.76,-20.73 69.09,-20.73 27.51,0 49.64,6.41 66.39,19.21 16.75,12.81 30.06,27.14 39.93,42.98 9.87,15.84 16.89,30.17 21.08,42.98 4.19,12.8 7.18,19.21 8.97,19.21 11.37,0 20.04,-4.38 26.02,-13.15 2.4,-4.72 3.89,-9.77 4.49,-15.16 0.6,-5.4 0.75,-10.62 0.45,-15.68 -0.3,-5.05 -0.9,-9.27 -1.8,-12.64 -0.89,-3.37 -1.34,-5.05 -1.34,-5.05 0,-0.68 -2.54,-6.07 -7.63,-16.18 -5.09,-10.12 -13.6,-21.58 -25.57,-34.39 -10.77,-11.46 -26.17,-22.58 -46.2,-33.36 -20.04,-10.79 -45.91,-16.18 -77.62,-16.18 -32.3,0 -65.19,7.41 -98.69,22.24 -33.49,14.83 -64,36.57 -91.52,65.22 -27.51,28.65 -50.09,63.71 -67.74,105.17 -17.64,41.46 -26.46,88.82 -26.46,142.08 0,30.33 3.29,59.49 9.87,87.47 6.58,27.97 14.95,54.09 25.12,78.36 10.17,24.27 21.23,46.69 33.2,67.25 11.96,20.56 23.33,38.93 34.09,55.11 13.76,21.57 27.37,40.79 40.83,57.64 13.45,16.85 24.67,30.67 33.64,41.46 -12.56,-10.11 -28.86,-25.11 -48.9,-45 -20.03,-19.89 -42.17,-42.81 -66.39,-68.76 -24.23,-25.95 -49.65,-54.1 -76.26,-84.44 -26.62,-30.34 -52.64,-60.67 -78.06,-91.01 -25.42,-30.33 -49.35,-59.83 -71.78,-88.48 -22.43,-28.65 -41.72,-54.43 -57.87,-77.35 -13.16,-1.35 -25.12,0.33 -35.89,5.05 -8.97,4.04 -17.19,11.8 -24.67,23.26 -7.48,11.46 -11.22,28.99 -11.22,52.58 0,16.18 4.19,36.24 12.56,60.17 8.38,23.93 19.59,49.71 33.65,77.36 14.06,27.64 29.91,56.46 47.55,86.46 17.65,30 35.74,59.15 54.28,87.46 43.07,66.74 92.42,137.19 148.04,211.35 -8.97,0 -22.58,-6.91 -40.82,-20.73 -18.24,-13.82 -39.03,-32.53 -62.36,-56.12 -23.33,-23.6 -48.45,-50.73 -75.36,-81.41 -26.92,-30.67 -53.68,-62.86 -80.3,-96.57 -26.62,-33.7 -52.19,-67.58 -76.72,-101.62 -24.52,-34.05 -46.2,-66.24 -65.04,-96.57 -18.84,-30.34 -33.94,-57.81 -45.31,-82.42 -11.37,-24.6 -17.05,-43.65 -17.05,-57.13 0,-7.42 -4.19,-11.8 -12.56,-13.15 -8.38,-1.34 -17.79,0.85 -28.26,6.57 -10.47,5.74 -19.89,15.68 -28.26,29.84 -8.38,14.15 -12.56,33.37 -12.56,57.64 0,45.16 10.17,94.04 30.5,146.62 20.34,52.58 45.61,106.01 75.81,160.28 30.21,54.27 63.11,108.03 98.7,161.29 35.59,53.25 68.48,102.97 98.69,149.15 30.21,46.18 55.48,87.47 75.82,123.88 20.33,36.4 30.5,65.05 30.5,85.94 0,20.23 -7.93,38.09 -23.78,53.6 -15.85,15.51 -38.43,23.26 -67.73,23.26 h 0.89"
             style="fill:url(#linearGradient81);fill-opacity:1;fill-rule:nonzero;stroke:none"
             id="path83"
             inkscape:connector-curvature="0" />
        </g>
      </g>
      <g
         transform="matrix(0.04660341,0,0,-0.04660341,-75.149373,122.92342)"
         id="g85">
        <g
           id="g87"
           clip-path="url(#clipPath91)">
          <path
             d="m 3714.53,1151.45 c 14.76,28.48 24.55,53.8 29.35,75.96 2.21,9.49 3.32,18.81 3.32,27.95 0,9.14 -1.75,17.23 -5.26,24.26 -3.51,7.04 -9.05,12.75 -16.61,17.15 -7.57,4.39 -18,6.59 -31.29,6.59 -11.08,0 -23.9,-2.81 -38.49,-8.44 -14.58,-5.63 -28.33,-11.96 -41.25,-18.99 -15.14,-8.09 -30.64,-17.23 -46.52,-27.43 -5.53,6.33 -9.6,12.66 -12.18,18.99 -2.21,5.63 -3.41,11.52 -3.6,17.67 -0.18,6.16 2.86,12.22 9.14,18.2 4.06,3.87 12.46,10.28 25.2,19.25 12.73,8.97 27.59,19.6 44.57,31.91 16.98,12.31 34.89,25.85 53.72,40.61 18.82,14.78 36.36,29.63 52.6,44.58 16.25,14.94 29.9,29.53 40.98,43.77 11.07,14.25 17.35,27.34 18.83,39.3 2.58,19.69 -3.24,33.49 -17.45,41.4 -14.21,7.91 -34.98,11.87 -62.29,11.87 -18.46,0 -37.84,-3.43 -58.15,-10.28 -20.3,-6.86 -40.97,-16.18 -62.02,-27.96 -21.04,-11.78 -41.99,-25.23 -62.84,-40.35 -20.86,-15.12 -40.8,-30.85 -59.81,-47.21 -19.02,-16.35 -36.73,-32.87 -53.16,-49.58 -16.43,-16.7 -30.74,-32.35 -42.92,-46.94 -12.18,-14.59 -21.96,-27.52 -29.35,-38.77 -7.38,-11.25 -11.44,-19.86 -12.18,-25.84 -1.1,-7.03 0.56,-10.82 4.99,-11.34 4.43,-0.53 10.52,1.23 18.27,5.27 7.75,4.04 16.7,10.11 26.86,18.2 10.15,8.09 20.85,17.05 32.11,26.9 11.26,9.85 22.43,20.22 33.51,31.12 11.07,10.9 21.41,21.45 31,31.65 4.07,4.92 7.02,9.67 8.87,14.24 1.84,4.57 3.13,8.7 3.87,12.39 0.74,3.7 1.48,6.68 2.22,8.97 0.73,2.28 2.03,3.43 3.87,3.43 7.76,0 15.04,-1.76 21.87,-5.27 6.83,-3.52 12.83,-8.09 18,-13.72 5.17,-5.63 9.23,-11.96 12.19,-18.99 2.95,-7.03 4.43,-14.06 4.43,-21.1 0,-7.03 -3.42,-16.87 -10.25,-29.53 -6.83,-12.66 -15.41,-26.82 -25.75,-42.46 -10.34,-15.65 -21.5,-32 -33.5,-49.06 -12,-17.05 -23.17,-33.58 -33.5,-49.58 -10.34,-16 -18.92,-30.68 -25.75,-44.04 -6.83,-13.36 -10.25,-24.09 -10.25,-32.17 0,-6.69 -2.4,-10.9 -7.2,-12.66 -4.8,-1.76 -10.33,-1.15 -16.61,1.84 -6.27,2.99 -12.27,8.44 -17.99,16.35 -5.73,7.92 -9.7,18.03 -11.91,30.33 -1.48,8.44 -0.46,18.2 3.05,29.28 3.5,11.07 8.49,22.76 14.95,35.07 6.46,12.31 13.93,24.97 22.42,37.98 8.49,13.01 17.17,25.84 26.03,38.5 -7.75,-6.33 -15.78,-12.57 -24.09,-18.72 -8.3,-6.16 -16.52,-11.61 -24.64,-16.36 -8.12,-4.74 -16.06,-8.52 -23.81,-11.34 -7.75,-2.81 -14.95,-4.21 -21.6,-4.21 -6.27,0 -11.9,1.23 -16.89,3.69 -4.98,2.46 -9.13,5.63 -12.46,9.49 -3.32,3.87 -5.72,8.27 -7.2,13.19 -1.47,4.92 -1.84,10.02 -1.1,15.29 1.1,10.2 7.57,25.24 19.38,45.1 11.81,19.87 27.5,41.85 47.07,65.93 19.56,24.09 42.36,48.79 68.38,74.11 26.03,25.32 54.09,48.35 84.18,69.1 30.08,20.74 61.55,37.71 94.41,50.9 32.86,13.18 65.9,19.77 99.12,19.77 21.41,0 40.7,-3.16 57.87,-9.49 17.16,-6.33 31.56,-15.03 43.19,-26.11 11.63,-11.07 20.12,-24 25.47,-38.76 5.35,-14.77 6.93,-30.6 4.71,-47.48 -1.48,-9.84 -5.08,-20.04 -10.8,-30.59 -5.72,-10.55 -12.64,-21.01 -20.77,-31.38 -8.12,-10.37 -16.98,-20.4 -26.57,-30.07 -9.6,-9.67 -19.02,-18.63 -28.25,-26.9 -9.23,-8.26 -17.72,-15.47 -25.47,-21.62 -7.75,-6.15 -13.84,-10.81 -18.27,-13.98 4.79,-1.76 12.36,-5.19 22.7,-10.28 10.34,-5.1 20.31,-12.57 29.9,-22.42 9.6,-9.85 17.63,-22.42 24.09,-37.71 6.46,-15.3 8.22,-34.03 5.26,-56.18 -1.1,-7.38 -2.77,-14.77 -4.98,-22.15 15.13,11.6 28.98,25.5 41.53,41.67 l 0.98,1.24 c 0.5,0.82 1,1.64 1.51,2.45 9.05,14.42 19.38,27.96 31.01,40.62 11.63,12.65 23.63,23.64 35.99,32.96 12.37,9.32 24.65,16.61 36.83,21.89 12.18,5.27 23.26,7.91 33.22,7.91 15.51,0 28.8,-4.13 39.87,-12.39 11.08,-8.27 20.12,-18.02 27.14,-29.28 1.1,-1.75 0,-4.04 -3.32,-6.86 -3.33,-2.81 -11.26,-4.21 -23.82,-4.21 -15.13,0 -30.27,-4.66 -45.4,-13.99 -15.14,-9.31 -29.17,-20.91 -42.09,-34.8 -12.92,-13.89 -24.27,-28.93 -34.06,-45.1 -9.78,-16.18 -17.25,-31.21 -22.42,-45.1 -5.17,-13.89 -7.48,-25.5 -6.92,-34.81 0.55,-9.32 4.89,-13.98 13.01,-13.98 8.12,0 17.53,3.17 28.24,9.5 10.71,6.33 20.86,13.53 30.46,21.62 11.44,9.14 22.89,19.52 34.33,31.12 -1.11,2.46 -2.03,5.45 -2.77,8.97 -0.74,2.81 -1.29,6.15 -1.66,10.02 -0.37,3.87 -0.55,8.26 -0.55,13.19 0,10.55 2.86,19.51 8.58,26.89 5.72,7.39 12,12.23 18.83,14.51 6.83,2.29 13.1,1.58 18.83,-2.11 5.72,-3.69 8.58,-10.99 8.58,-21.89 0,-4.92 -2.4,-11.43 -7.2,-19.51 -4.8,-8.09 -11.63,-17.76 -20.49,-29.02 0.74,-0.7 2.31,-1.49 4.71,-2.37 2.4,-0.88 4.34,-1.31 5.81,-1.31 6.65,0 13.29,2.37 19.94,7.11 6.64,4.75 13.84,11.61 21.59,20.57 7.76,8.97 16.16,19.87 25.2,32.71 9.04,12.83 19.1,27.34 30.18,43.51 0.44,0.67 0.9,1.28 1.39,1.84 1.3,2.21 2.59,4.41 3.87,6.6 7.57,13.01 13.93,25.23 19.1,36.66 5.17,11.43 8.13,21.36 8.86,29.8 0.37,3.17 3.24,4.4 8.59,3.69 5.35,-0.7 11.07,-3.16 17.16,-7.38 6.09,-4.22 11.54,-10.11 16.34,-17.67 4.8,-7.56 6.83,-16.61 6.09,-27.17 -0.74,-7.03 -4.43,-16.61 -11.08,-28.74 -6.64,-12.13 -14.58,-25.23 -23.81,-39.3 -9.23,-14.06 -18.73,-28.3 -28.52,-42.72 -9.78,-14.42 -18.18,-27.52 -25.19,-39.29 -7.02,-11.79 -11.72,-21.37 -14.12,-28.75 -2.4,-7.38 -0.46,-11.08 5.81,-11.08 2.22,0 8.31,4.49 18.28,13.45 9.96,8.97 21.78,20.66 35.44,35.08 13.66,14.41 28.14,30.5 43.46,48.26 15.33,17.76 29.54,35.52 42.64,53.27 13.11,17.76 24.09,34.46 32.95,50.11 8.86,15.65 13.66,28.57 14.4,38.77 0.37,3.16 3.05,4.04 8.03,2.64 4.98,-1.41 10.43,-4.49 16.34,-9.23 5.9,-4.75 11.07,-11.26 15.5,-19.52 4.43,-8.26 6.28,-17.67 5.53,-28.22 -0.36,-7.03 -3.87,-16.53 -10.52,-28.48 -6.64,-11.96 -14.39,-24.79 -23.25,-38.5 -8.86,-13.72 -18.09,-27.61 -27.69,-41.68 -9.6,-14.06 -17.9,-26.72 -24.92,-37.97 -7.01,-11.25 -11.72,-20.48 -14.12,-27.69 -2.4,-7.21 -0.83,-10.82 4.71,-10.82 2.95,0 7.66,2.38 14.12,7.13 6.46,4.74 14.12,11.25 22.98,19.51 8.86,8.26 18.55,17.84 29.07,28.75 10.52,10.9 21.23,22.42 32.12,34.55 10.89,12.13 21.41,24.44 31.56,36.92 10.16,12.48 19.29,24.7 27.41,36.66 1.85,2.81 4.16,4.57 6.93,5.27 0.29,0.07 0.57,0.14 0.86,0.19 5.56,9.68 11.27,19.54 17.13,29.61 10.34,17.76 20.95,35.87 31.84,54.33 10.89,18.46 21.51,36.48 31.84,54.06 -9.6,-0.7 -19.56,-1.05 -29.9,-1.05 -10.33,0 -21.04,0 -32.12,0 -15.5,0 -28.61,1.32 -39.32,3.95 -10.7,2.64 -19.65,6.07 -26.85,10.29 -7.2,4.22 -12.83,8.96 -16.89,14.24 -4.06,5.27 -7.2,10.55 -9.42,15.82 -3.32,9.15 -3.41,14.77 -0.27,16.88 3.14,2.11 7.11,1.23 11.91,-2.64 8.12,-6.32 19.01,-12.04 32.67,-17.14 13.66,-5.1 30.08,-7.65 49.28,-7.65 16.61,0 32.02,0.45 46.24,1.32 14.21,0.88 26.12,1.85 35.71,2.9 14.03,24.97 25.39,46.95 34.06,65.94 8.67,18.98 13.01,32.88 13.01,41.66 0,3.87 2.77,5.63 8.31,5.28 5.54,-0.35 11.72,-2.9 18.55,-7.65 6.83,-4.75 13.01,-11.6 18.55,-20.57 5.54,-8.97 8.31,-20.13 8.31,-33.49 0,-4.57 -1.67,-11.08 -4.99,-19.52 -3.32,-8.44 -8.12,-18.28 -14.39,-29.54 h 16.05 c 17.36,0 32.4,-2.02 45.13,-6.06 l 0.61,-0.2 0.23,0.46 c 3.32,6.69 7.01,11.96 11.07,15.83 4.06,3.86 8.3,6.68 12.74,8.43 4.43,1.76 8.3,2.64 11.62,2.64 3.33,0 7.85,-0.96 13.57,-2.9 5.73,-1.93 11.36,-4.48 16.89,-7.65 5.54,-3.16 10.25,-6.77 14.12,-10.81 3.88,-4.04 5.63,-8.35 5.26,-12.92 -0.36,-4.58 -1.66,-8.35 -3.88,-11.34 -2.21,-2.99 -4.98,-6.07 -8.3,-9.23 -3.32,-3.17 -7.01,-6.95 -11.07,-11.35 -1.5,-1.62 -3.03,-3.42 -4.58,-5.4 2.42,-4.54 4.32,-8.98 5.68,-13.32 1.48,-4.92 1.48,-8.53 0,-10.81 -1.47,-2.29 -3.14,-3.78 -4.98,-4.48 -2.59,-1.06 -5.54,-1.41 -8.86,-1.06 0,3.19 -1.44,6.86 -4.33,11 -2.34,-3.79 -4.22,-6.93 -5.64,-9.42 -2.21,-3.86 -4.06,-6.68 -5.54,-8.44 -1.47,-1.75 -2.76,-2.81 -3.87,-3.16 -1.11,-0.35 -2.77,-0.53 -4.99,-0.53 -3.32,0 -6.92,1.32 -10.79,3.96 -3.88,2.64 -7.48,6.59 -10.8,11.87 -3.32,5.27 -6,11.69 -8.03,19.25 -1.4,5.22 -2.06,10.9 -1.96,17.04 -11.68,3.23 -25.15,4.85 -40.4,4.85 -5.91,0 -11.72,0 -17.45,0 -5.72,0 -11.35,-0.18 -16.88,-0.53 -11.45,-19.69 -24.19,-40.88 -38.21,-63.56 -14.03,-22.68 -28.06,-45.36 -42.09,-68.04 -14.03,-22.68 -27.32,-44.48 -39.87,-65.4 -12.55,-20.93 -22.79,-39.48 -30.73,-55.65 -7.94,-16.18 -12.92,-29.1 -14.95,-38.77 -2.03,-9.67 0.27,-14.5 6.92,-14.5 4.06,0 12.27,4.92 24.64,14.76 12.37,9.85 26.3,22.42 41.81,37.72 15.5,15.29 31.47,32.18 47.9,50.63 16.42,18.46 30.73,36.48 42.91,54.07 1.49,2.26 3.28,3.9 5.36,4.91 l 1.01,1.68 c 9.41,15.65 17.45,31.39 24.09,47.21 1.11,2.46 1.84,5.1 2.22,7.91 0.36,2.81 0.92,5.36 1.66,7.65 0.73,2.28 1.84,4.13 3.32,5.53 1.48,1.41 3.87,2.12 7.2,2.12 3.32,0 7.19,-1.32 11.62,-3.96 4.44,-2.64 8.5,-6.5 12.19,-11.6 3.69,-5.1 6.64,-11.52 8.86,-19.26 2.22,-7.73 2.77,-16.7 1.66,-26.89 -0.74,-7.04 -4.25,-16.09 -10.52,-27.17 -6.28,-11.08 -13.57,-22.94 -21.87,-35.6 -8.31,-12.66 -16.71,-25.41 -25.2,-38.24 -8.49,-12.84 -15.14,-24.53 -19.93,-35.08 -4.8,-10.55 -6.92,-19.07 -6.37,-25.58 0.55,-6.51 5.63,-9.76 15.22,-9.76 4.07,0 12.09,4.93 24.09,14.77 12,9.85 25.48,22.42 40.42,37.71 7.83,8.01 15.81,16.48 23.95,25.4 6.49,12.28 14.66,24.92 24.51,37.9 11.08,14.59 23.72,29.01 37.93,43.25 14.21,14.24 28.61,26.99 43.19,38.24 14.58,11.25 28.71,20.39 42.37,27.43 13.65,7.03 25.65,10.55 35.99,10.55 8.12,0 15.5,-2.73 22.15,-8.18 6.64,-5.45 11.9,-11.43 15.78,-17.93 3.88,-6.51 6.28,-12.48 7.2,-17.94 0.92,-5.45 -0.09,-8.17 -3.05,-8.17 -18.82,0 -37.56,-4.57 -56.2,-13.71 -18.64,-9.15 -36,-20.49 -52.05,-34.03 -16.06,-13.54 -30.37,-28.3 -42.92,-44.3 -12.55,-16 -22.06,-30.77 -28.52,-44.31 -6.46,-13.54 -9.41,-24.88 -8.86,-34.02 0.56,-9.14 6,-13.71 16.34,-13.71 2.21,0 7.01,3.07 14.39,9.23 7.39,6.15 15.97,13.97 25.75,23.47 9.79,9.49 20.03,19.87 30.74,31.12 10.71,11.25 20.39,21.89 29.07,31.91 8.67,10.02 15.6,18.64 20.76,25.84 5.18,7.21 7.39,11.7 6.65,13.46 -1.47,2.46 -0.46,3.68 3.05,3.68 3.5,0 7.57,-1.49 12.18,-4.48 4.61,-2.98 8.95,-7.47 13.01,-13.45 4.06,-5.98 6.09,-13.71 6.09,-23.2 0,-9.85 -4.8,-24.35 -14.39,-43.52 -9.61,-19.16 -22.71,-40.88 -39.32,-65.14 7.75,4.92 18.18,13.71 31.29,26.37 13.1,12.66 27.04,27.17 41.8,43.52 14.77,16.35 29.53,33.49 44.3,51.42 14.77,17.94 27.69,34.64 38.77,50.11 0.89,1.36 1.89,2.5 2.99,3.4 0.58,0.98 1.14,1.95 1.71,2.93 7.57,13.01 13.94,25.23 19.11,36.66 5.17,11.43 8.12,21.36 8.86,29.8 0.36,3.17 3.23,4.4 8.58,3.69 5.35,-0.7 11.07,-3.16 17.16,-7.38 6.1,-4.22 11.54,-10.11 16.34,-17.67 4.8,-7.56 6.83,-16.61 6.09,-27.17 -0.73,-7.03 -4.43,-16.61 -11.07,-28.74 -6.65,-12.13 -14.58,-25.23 -23.81,-39.3 -9.23,-14.06 -18.74,-28.3 -28.52,-42.72 -9.78,-14.42 -18.18,-27.52 -25.2,-39.29 -7.01,-11.79 -11.72,-21.37 -14.12,-28.75 -2.4,-7.38 -0.46,-11.08 5.82,-11.08 2.21,0 8.3,4.49 18.27,13.45 9.97,8.97 21.78,20.66 35.44,35.08 13.66,14.41 28.15,30.5 43.47,48.26 15.32,17.76 29.54,35.52 42.64,53.27 13.1,17.76 24.09,34.46 32.95,50.11 8.86,15.65 13.66,28.57 14.4,38.77 0.36,3.16 3.04,4.04 8.02,2.64 4.99,-1.41 10.43,-4.49 16.34,-9.23 5.9,-4.75 11.08,-11.26 15.5,-19.52 4.43,-8.26 6.28,-17.67 5.54,-28.22 -0.37,-7.03 -3.87,-16.53 -10.52,-28.48 -6.65,-11.96 -14.4,-24.79 -23.26,-38.5 -8.86,-13.72 -18.09,-27.61 -27.68,-41.68 -9.6,-14.06 -17.91,-26.72 -24.93,-37.97 -7.01,-11.25 -11.71,-20.48 -14.11,-27.69 -2.4,-7.21 -0.83,-10.82 4.7,-10.82 2.95,0 7.66,2.38 14.13,7.13 6.45,4.74 14.11,11.25 22.98,19.51 8.85,8.26 18.54,17.84 29.07,28.75 10.52,10.9 21.22,22.42 32.11,34.55 10.89,12.13 21.42,24.44 31.57,36.92 1.02,1.25 2.02,2.5 3.02,3.75 1.53,2.28 3.11,4.54 4.73,6.8 4.5,6.24 9.22,12.31 14.17,18.2 1.88,2.65 3.71,5.28 5.49,7.91 1.62,2.46 3.59,4.12 5.92,4.96 3.12,3.33 6.31,6.6 9.58,9.81 12.92,12.65 25.57,23.73 37.93,33.23 12.37,9.49 23.91,16.87 34.61,22.15 10.71,5.27 19.2,7.91 25.48,7.91 3.69,0 7.75,-0.79 12.18,-2.37 4.43,-1.59 8.58,-4.49 12.46,-8.71 3.88,-4.22 7.2,-10.19 9.97,-17.93 2.76,-7.74 4.15,-17.94 4.15,-30.59 0,-8.44 -2.96,-17.67 -8.86,-27.69 -5.91,-10.03 -13.47,-20.05 -22.7,-30.07 -9.24,-10.02 -19.48,-19.78 -30.74,-29.27 -11.26,-9.5 -22.34,-17.94 -33.22,-25.32 -10.89,-7.39 -20.86,-13.27 -29.91,-17.67 -9.04,-4.4 -15.96,-6.6 -20.76,-6.6 -3.32,-6.68 -5.54,-12.65 -6.65,-17.93 -0.73,-4.57 -0.27,-8.61 1.39,-12.13 1.66,-3.51 6.18,-5.27 13.56,-5.27 9.24,0 21.79,4.65 37.66,13.97 15.88,9.32 32.76,21.28 50.67,35.87 17.9,14.6 35.53,30.94 52.88,49.05 17.35,18.11 32.12,35.96 44.3,53.54 2.21,2.81 4.62,4.66 7.2,5.54 2.58,0.88 4.89,0.79 6.92,-0.27 2.03,-1.05 3.14,-2.98 3.32,-5.8 0.19,-2.81 -1.2,-6.33 -4.15,-10.55 -1.85,-2.81 -6.83,-9.05 -14.95,-18.72 -8.12,-9.67 -18.27,-20.92 -30.46,-33.76 -12.18,-12.83 -25.65,-26.37 -40.42,-40.61 -14.77,-14.24 -29.81,-27.25 -45.13,-39.03 -15.32,-11.78 -30.27,-21.54 -44.85,-29.28 -14.59,-7.73 -27.78,-11.6 -39.6,-11.6 -9.97,0.7 -18.83,3.52 -26.58,8.44 -6.65,4.22 -12.73,10.64 -18.27,19.25 -5.54,8.61 -8.31,21.19 -8.31,37.71 0,9.72 1.26,19.48 3.76,29.27 -4.08,-4.6 -8.28,-9.26 -12.62,-13.97 -12.92,-14.07 -25.84,-27.08 -38.76,-39.03 -12.92,-11.96 -25.28,-21.89 -37.1,-29.8 -11.81,-7.91 -21.97,-11.87 -30.46,-11.87 -9.96,0 -18.36,3.34 -25.19,10.02 -6.83,6.68 -11.82,14.6 -14.95,23.74 -3.14,9.14 -4.25,18.72 -3.33,28.74 0.93,10.02 4.16,18.55 9.69,25.58 -12.55,-16.52 -24.91,-31.29 -37.1,-44.3 -5.17,-5.63 -10.52,-11.08 -16.06,-16.35 -5.53,-5.28 -11.07,-9.93 -16.61,-13.98 -5.53,-4.04 -10.89,-7.3 -16.06,-9.76 -5.17,-2.46 -9.78,-3.69 -13.84,-3.69 -5.91,0 -11.72,1.05 -17.44,3.25 -5.73,2.11 -10.8,5.54 -15.23,10.29 -4.43,4.66 -7.85,10.55 -10.25,17.58 -2.4,7.03 -3.23,15.65 -2.49,25.84 0.37,5.98 3.14,14.07 8.31,24.27 0.38,0.75 0.77,1.52 1.17,2.29 -1.49,-1.72 -2.98,-3.45 -4.49,-5.19 -13.29,-15.3 -26.68,-29.63 -40.15,-42.99 -13.47,-13.36 -26.4,-24.7 -38.76,-34.02 -12.37,-9.32 -22.98,-14.68 -31.84,-16.09 v -0.53 c -12.93,-19.69 -25.11,-39.11 -36.55,-58.28 -11.45,-19.167 -21.41,-36.659 -29.9,-52.479 -8.49,-15.828 -15.14,-29.367 -19.94,-40.617 -4.8,-11.254 -7.2,-18.813 -7.2,-22.68 0,-5.274 -2.12,-8.176 -6.37,-8.703 -4.24,-0.528 -8.86,0.793 -13.84,3.957 -4.98,3.16 -9.5,7.996 -13.56,14.504 -4.07,6.504 -6.1,13.976 -6.1,22.418 0,6.679 2.77,16.437 8.31,29.273 5.54,12.832 12.83,27.426 21.87,43.777 9.05,16.35 19.29,33.93 30.73,52.75 11.45,18.81 23.26,37.71 35.45,56.7 5.16,8.09 10.15,16.17 14.94,24.26 4.81,8.09 9.23,15.29 13.3,21.63 4.43,7.38 8.86,14.23 13.29,20.57 -16.25,-17.23 -31.38,-32.53 -45.41,-45.89 -5.91,-5.98 -11.91,-11.7 -18,-17.14 -6.09,-5.46 -11.91,-10.29 -17.44,-14.51 -5.54,-4.22 -10.43,-7.65 -14.67,-10.28 -4.25,-2.64 -7.66,-3.96 -10.25,-3.96 -5.17,0 -10.71,1.67 -16.61,5.01 -5.91,3.34 -11.54,8 -16.89,13.98 -5.35,5.98 -9.78,12.92 -13.29,20.83 -3.51,7.91 -5.26,16.62 -5.26,26.11 0,0.28 0,0.57 0.01,0.86 -8.31,-8.71 -16.62,-16.91 -24.93,-24.6 -12.92,-11.95 -25.29,-21.8 -37.1,-29.53 -11.82,-7.74 -21.97,-11.61 -30.46,-11.61 -10.7,0 -19.38,2.38 -26.02,7.13 -6.65,4.74 -11.82,10.72 -15.51,17.93 -3.69,7.21 -6.09,15.03 -7.2,23.47 -1.11,8.44 -1.29,16.17 -0.55,23.21 0.66,8.47 3.67,18.12 9.03,28.97 -6.23,-6.92 -12.75,-14.03 -19.55,-21.33 -13.29,-14.24 -26.49,-27.33 -39.6,-39.29 -13.1,-11.96 -25.65,-21.8 -37.65,-29.54 -12,-7.73 -22.24,-11.6 -30.73,-11.6 -10.34,0 -18.65,2.02 -24.92,6.07 -6.28,4.04 -11.17,9.05 -14.68,15.03 -3.5,5.97 -5.81,12.57 -6.92,19.78 -1.1,7.21 -1.66,13.97 -1.66,20.3 0,5.98 2.03,14.34 6.09,25.06 3.44,9.08 7.93,19.29 13.49,30.63 -9.72,-11.64 -20.3,-23.7 -31.76,-36.17 -12.92,-14.07 -25.84,-27.08 -38.76,-39.03 -12.92,-11.96 -25.29,-21.89 -37.1,-29.8 -11.82,-7.91 -21.97,-11.87 -30.46,-11.87 -9.97,0 -18.37,3.34 -25.2,10.02 -6.82,6.68 -11.81,14.6 -14.95,23.74 -3.14,9.14 -4.24,18.72 -3.32,28.74 0.92,10.02 4.15,18.55 9.69,25.58 -12.55,-16.52 -24.92,-31.29 -37.1,-44.3 -5.17,-5.63 -10.52,-11.08 -16.06,-16.35 -5.54,-5.28 -11.08,-9.93 -16.61,-13.98 -5.54,-4.04 -10.89,-7.3 -16.06,-9.76 -5.17,-2.46 -9.79,-3.69 -13.84,-3.69 -5.91,0 -11.73,1.05 -17.45,3.25 -5.72,2.11 -10.8,5.54 -15.23,10.29 -4.43,4.66 -7.84,10.55 -10.24,17.58 -2.4,7.03 -3.23,15.65 -2.49,25.84 0.32,5.17 2.42,11.91 6.33,20.22 -3.35,-2.49 -6.76,-4.75 -10.21,-6.77 -8.12,-4.74 -16.05,-7.12 -23.81,-7.12 -4.06,0 -7.85,0.71 -11.35,2.11 -3.51,1.41 -6.37,2.99 -8.59,4.75 -2.21,-2.81 -4.24,-5.1 -6.09,-6.86 -0.73,-0.35 -1.47,-1.05 -2.21,-2.11 -0.74,-0.7 -1.57,-1.58 -2.49,-2.63 -0.92,-1.06 -1.94,-2.29 -3.05,-3.7 -13.29,-13.36 -27.69,-25.14 -43.19,-35.33 -15.5,-10.2 -31.01,-16.36 -46.51,-18.47 -0.37,-0.35 -0.93,-0.52 -1.67,-0.52 -1.47,0 -2.4,-0.18 -2.77,-0.53 h -5.54 c -5.53,0 -11.71,0.88 -18.54,2.64 -6.83,1.75 -13.29,5.01 -19.39,9.75 -6.08,4.75 -11.16,11.43 -15.22,20.05 -4.06,8.61 -6.1,19.95 -6.1,34.02 0,14.64 2.3,29.28 6.88,43.92 -10.19,-9.06 -20.6,-17.54 -31.24,-25.46 -7.01,-16.53 -16.06,-33.58 -27.14,-51.16 -11.07,-17.58 -23.43,-34.73 -37.09,-51.43 -13.66,-16.71 -28.34,-32.53 -44.03,-47.47 -15.68,-14.947 -31.74,-28.134 -48.17,-39.56 -16.43,-11.43 -32.95,-20.656 -49.56,-27.691 -16.61,-7.031 -32.67,-10.903 -48.18,-11.606 h 0.55 -3.32 -2.21 c -18.83,1.055 -31.66,6.157 -38.49,15.297 -6.83,9.141 -9.14,20.57 -6.92,34.285 1.11,8.789 6.18,18.105 15.23,27.955 9.04,9.85 20.39,19.87 34.05,30.06 13.66,10.2 28.89,20.31 45.69,30.33 16.79,10.03 33.77,19.78 50.94,29.28 17.17,9.49 33.78,18.55 49.84,27.16 16.06,8.61 29.99,16.44 41.81,23.47 z m 1634.11,123.96 c -2.21,0 -5.35,-1.59 -9.42,-4.75 -4.06,-3.17 -8.4,-7.39 -13.01,-12.66 -4.61,-5.28 -9.6,-11.25 -14.95,-17.93 -5.35,-6.69 -10.61,-13.37 -15.78,-20.05 -12.18,-16.52 -25.29,-34.98 -39.32,-55.38 18.83,10.55 35.07,22.24 48.73,35.07 13.66,12.84 24.55,24.88 32.67,36.13 8.12,11.26 13.11,20.66 14.95,28.22 1.85,7.57 0.56,11.35 -3.87,11.35 z m -1854.5,127.64 c -1.85,-1.76 -3.6,-3.69 -5.26,-5.8 -1.67,-2.12 -3.42,-4.23 -5.27,-6.33 0.37,0.7 0.93,1.4 1.66,2.1 0.75,0.71 1.3,1.41 1.67,2.11 0.37,0.71 0.92,1.41 1.66,2.12 1.47,1.75 3.32,3.69 5.54,5.8 z m 16.61,-437.788 c 8.49,0 20.12,4.308 34.88,12.922 14.77,8.613 30.37,19.781 46.8,33.496 16.43,13.71 32.67,29.18 48.73,46.41 16.05,17.23 29.81,34.64 41.25,52.22 -10.34,-5.98 -21.87,-12.66 -34.61,-20.04 -12.74,-7.39 -25.56,-15.04 -38.48,-22.95 -12.93,-7.91 -25.66,-15.91 -38.21,-24 -12.56,-8.08 -23.72,-16.08 -33.5,-24 -9.79,-7.91 -17.91,-15.29 -24.37,-22.148 -6.46,-6.856 -10.06,-13.098 -10.8,-18.727 -0.74,-3.511 -0.55,-6.59 0.56,-9.226 1.1,-2.637 3.69,-3.957 7.75,-3.957"
             style="fill:url(#linearGradient107);fill-opacity:1;fill-rule:nonzero;stroke:none"
             id="path109"
             inkscape:connector-curvature="0" />
        </g>
      </g>
    </g>
  </g>
</svg>
