<?xml version="1.0" encoding="UTF-8" standalone="no"?>
<!-- Created with Inkscape (http://www.inkscape.org/) -->

<svg
   xmlns:dc="http://purl.org/dc/elements/1.1/"
   xmlns:cc="http://creativecommons.org/ns#"
   xmlns:rdf="http://www.w3.org/1999/02/22-rdf-syntax-ns#"
   xmlns:svg="http://www.w3.org/2000/svg"
   xmlns="http://www.w3.org/2000/svg"
   xmlns:sodipodi="http://sodipodi.sourceforge.net/DTD/sodipodi-0.dtd"
   xmlns:inkscape="http://www.inkscape.org/namespaces/inkscape"
   width="53.048962mm"
   height="53.04908mm"
   viewBox="0 0 53.048962 53.04908"
   version="1.1"
   id="svg1266"
   inkscape:version="0.92.4 (unknown)"
   sodipodi:docname="User.svg">
  <defs
     id="defs1260" />
  <sodipodi:namedview
     id="base"
     pagecolor="#ffffff"
     bordercolor="#666666"
     borderopacity="1.0"
     inkscape:pageopacity="0.0"
     inkscape:pageshadow="2"
     inkscape:zoom="0.35"
     inkscape:cx="9.1138992"
     inkscape:cy="100.25023"
     inkscape:document-units="mm"
     inkscape:current-layer="layer1"
     showgrid="false"
     fit-margin-top="0"
     fit-margin-left="0"
     fit-margin-right="0"
     fit-margin-bottom="0"
     inkscape:window-width="1311"
     inkscape:window-height="713"
     inkscape:window-x="55"
     inkscape:window-y="27"
     inkscape:window-maximized="1" />
  <metadata
     id="metadata1263">
    <rdf:RDF>
      <cc:Work
         rdf:about="">
        <dc:format>image/svg+xml</dc:format>
        <dc:type
           rdf:resource="http://purl.org/dc/dcmitype/StillImage" />
        <dc:title></dc:title>
      </cc:Work>
    </rdf:RDF>
  </metadata>
  <g
     inkscape:label="Capa 1"
     inkscape:groupmode="layer"
     id="layer1"
     transform="translate(-78.475519,-121.97546)">
    <g
       id="g1258"
       transform="matrix(1.3098509,0,0,1.3098509,150.30906,54.170327)">
      <circle
         id="circle1182"
         r="19.513643"
         cy="72.015533"
         cx="-34.591007"
         style="fill:#a4c2f7;stroke-width:0.07910156" />
      <ellipse
         id="ellipse1184"
         ry="19.513643"
         rx="18.409069"
         cy="72.015533"
         cx="-35.695583"
         style="fill:#e3e7f2;stroke-width:0.07910156" />
      <path
         id="path1186"
         d="m -34.591007,91.529177 c 0.190635,0 0.379055,-0.009 0.568345,-0.0144 -9.918386,-0.301535 -17.872918,-8.912769 -17.872918,-19.499247 0,-10.586478 7.954532,-19.197711 17.872918,-19.499246 -0.18929,-0.0054 -0.377789,-0.0144 -0.568345,-0.0144 -10.777113,0 -19.513639,8.73653 -19.513639,19.513643 0,10.777113 8.736526,19.513643 19.513639,19.513643 z"
         style="fill:#ffffff;stroke-width:0.07910156"
         inkscape:connector-curvature="0" />
      <path
         inkscape:connector-curvature="0"
         style="fill:#428dff;stroke-width:0.07910156"
         d="m -34.591007,92.265534 c -11.183774,0 -20.249999,-9.066226 -20.249999,-20.25 0,-11.183774 9.066225,-20.249999 20.249999,-20.249999 11.183774,0 20.25,9.066225 20.25,20.249999 -0.01289,11.178395 -9.071604,20.237106 -20.25,20.25 z m 0,-39.027286 c -10.370372,0 -18.777289,8.406914 -18.777289,18.777286 0,10.370373 8.406917,18.777287 18.777289,18.777287 10.370373,0 18.777287,-8.406914 18.777287,-18.777287 -0.01186,-10.365468 -8.411818,-18.765421 -18.777287,-18.777286 z"
         id="path1188" />
      <path
         id="path1190"
         d="m -34.591797,57.65625 c -2.975642,0 -5.17231,0.783856 -6.529297,2.332031 -1.01511,1.199338 -1.513992,2.752228 -1.386718,4.31836 v 3.4375 c -0.41916,0.484814 -0.650144,1.103259 -0.652344,1.74414 v 2.611328 c 0,0.805571 0.36198,1.567074 0.986328,2.076172 0.453094,1.698706 1.225926,3.296042 2.277344,4.705078 v 2.13086 c 7.9e-5,0.600934 -0.327862,1.153555 -0.855469,1.441406 l -5.822266,3.175781 c -0.382219,0.21215 -0.739875,0.465241 -1.066406,0.75586 -0.162003,0.141275 -0.253753,0.347581 -0.251953,0.5625 0.0018,0.214919 0.09735,0.418054 0.261719,0.55664 3.650616,3.072937 8.267261,4.759019 13.039062,4.761719 4.737076,-0.0025 9.325223,-1.663348 12.964844,-4.695313 0.167224,-0.139455 0.263118,-0.346765 0.263672,-0.564453 5.54e-4,-0.217687 -0.09521,-0.424127 -0.261719,-0.564453 -0.357856,-0.306993 -0.751529,-0.56955 -1.171875,-0.783203 l -6.234375,-3.117187 c -0.557508,-0.276301 -0.90825,-0.846537 -0.90625,-1.46875 v -2.177735 c 0.144518,-0.178295 0.295634,-0.379365 0.453125,-0.601562 0.817199,-1.160103 1.466967,-2.429369 1.927734,-3.771485 0.938144,-0.441228 1.536457,-1.38509 1.535157,-2.421875 v -2.611328 c -0.0022,-0.640881 -0.235217,-1.259326 -0.654297,-1.74414 v -3.4375 c 0.127195,-1.566132 -0.371609,-3.119023 -1.386719,-4.31836 -1.356909,-1.548255 -3.553654,-2.332031 -6.529297,-2.332031 z m 0,2.351562 c 1.27478,0 2.262603,0.155782 3.03125,0.423829 0.768647,0.268047 1.318116,0.648359 1.712891,1.09375 0.302535,0.361594 0.52898,0.774804 0.669922,1.214843 0.140941,0.44004 0.196378,0.906909 0.158203,1.376954 a 2.3510788,2.3510788 0 0 0 -0.0078,0.189453 v 3.4375 a 2.3510788,2.3510788 0 0 0 0,0.0293 2.3510788,2.3510788 0 0 0 0.01563,0.234374 2.3510788,2.3510788 0 0 0 0.03711,0.232422 2.3510788,2.3510788 0 0 0 0.06055,0.226563 2.3510788,2.3510788 0 0 0 0.08398,0.220703 2.3510788,2.3510788 0 0 0 0.105469,0.208984 2.3510788,2.3510788 0 0 0 0.125,0.199219 2.3510788,2.3510788 0 0 0 0.144531,0.185547 c 0.05418,0.06267 0.08177,0.138516 0.08203,0.214844 v 2.603515 a 2.3510788,2.3510788 0 0 0 0,0.0039 c 1.64e-4,0.130573 -0.06551,0.235477 -0.183594,0.291015 a 2.3510788,2.3510788 0 0 0 -0.207031,0.111328 2.3510788,2.3510788 0 0 0 -0.195312,0.13086 2.3510788,2.3510788 0 0 0 -0.181641,0.148437 2.3510788,2.3510788 0 0 0 -0.166016,0.167969 2.3510788,2.3510788 0 0 0 -0.148437,0.181641 2.3510788,2.3510788 0 0 0 -0.128906,0.197265 2.3510788,2.3510788 0 0 0 -0.107422,0.207031 2.3510788,2.3510788 0 0 0 -0.08789,0.21875 c -0.38789,1.129841 -0.935561,2.200524 -1.625,3.179688 l -0.002,0.002 c -0.132304,0.186415 -0.253755,0.346715 -0.357422,0.474609 A 2.3510788,2.3510788 0 0 0 -31.876953,77.566406 2.3510788,2.3510788 0 0 0 -32,77.767578 a 2.3510788,2.3510788 0 0 0 -0.103516,0.210938 2.3510788,2.3510788 0 0 0 -0.08008,0.220703 2.3510788,2.3510788 0 0 0 -0.05859,0.228515 2.3510788,2.3510788 0 0 0 -0.03516,0.232422 2.3510788,2.3510788 0 0 0 -0.01172,0.234375 v 2.169922 c -0.0024,0.755133 0.211271,1.48294 0.595703,2.105469 0.384432,0.622529 0.939597,1.139781 1.61914,1.476562 l -0.0078,-0.002 4.978515,2.490235 c -1.418097,0.889377 -2.944535,1.584472 -4.539062,2.05664 -1.594527,0.472169 -3.257142,0.721413 -4.947266,0.722656 -1.722387,-9.74e-4 -3.414497,-0.261458 -5.035156,-0.751953 -1.620659,-0.490495 -3.169866,-1.211002 -4.605469,-2.132812 l 4.603516,-2.511719 c 0.639277,-0.348776 1.160772,-0.861528 1.521484,-1.46875 0.360713,-0.607222 0.560643,-1.308914 0.560547,-2.037109 v -2.13086 a 2.3510788,2.3510788 0 0 0 -0.002,-0.09766 2.3510788,2.3510788 0 0 0 -0.02148,-0.232422 2.3510788,2.3510788 0 0 0 -0.04492,-0.230469 2.3510788,2.3510788 0 0 0 -0.06641,-0.226562 2.3510788,2.3510788 0 0 0 -0.08984,-0.216797 2.3510788,2.3510788 0 0 0 -0.111328,-0.207031 2.3510788,2.3510788 0 0 0 -0.13086,-0.195313 c -0.872348,-1.169059 -1.514508,-2.494186 -1.890625,-3.904297 a 2.3510788,2.3510788 0 0 0 -0.01563,-0.05859 2.3510788,2.3510788 0 0 0 -0.07813,-0.222657 2.3510788,2.3510788 0 0 0 -0.09961,-0.21289 2.3510788,2.3510788 0 0 0 -0.119141,-0.201172 2.3510788,2.3510788 0 0 0 -0.140625,-0.189453 2.3510788,2.3510788 0 0 0 -0.158203,-0.173828 2.3510788,2.3510788 0 0 0 -0.173828,-0.158203 c -0.07943,-0.06477 -0.121094,-0.152564 -0.121094,-0.253907 v -2.603515 c 2.79e-4,-0.08123 0.02837,-0.155034 0.08008,-0.214844 a 2.3510788,2.3510788 0 0 0 0.01953,-0.02344 2.3510788,2.3510788 0 0 0 0.142578,-0.185546 2.3510788,2.3510788 0 0 0 0.123047,-0.201172 2.3510788,2.3510788 0 0 0 0.101562,-0.210938 2.3510788,2.3510788 0 0 0 0.08008,-0.220703 2.3510788,2.3510788 0 0 0 0.05859,-0.228515 2.3510788,2.3510788 0 0 0 0.03516,-0.232422 2.3510788,2.3510788 0 0 0 0.01172,-0.234375 v -3.4375 a 2.3510788,2.3510788 0 0 0 -0.0078,-0.189453 c -0.03819,-0.469972 0.01726,-0.936902 0.158203,-1.376954 0.14094,-0.440052 0.367367,-0.853226 0.669921,-1.214843 0.39485,-0.445428 0.944258,-0.825713 1.712891,-1.09375 0.768634,-0.268038 1.756492,-0.423829 3.03125,-0.423829 z"
         style="opacity:1;fill:#428dff;stroke:#000000;stroke-width:0;stroke-miterlimit:4;stroke-dasharray:none;stroke-opacity:1"
         inkscape:connector-curvature="0" />
    </g>
  </g>
</svg>
